<mxfile host="Electron" modified="2023-06-20T15:21:18.251Z" agent="Mozilla/5.0 (Macintosh; Intel Mac OS X 10_15_7) AppleWebKit/537.36 (KHTML, like Gecko) draw.io/21.5.0 Chrome/112.0.5615.204 Electron/24.5.1 Safari/537.36" etag="2zHrW2FAS_wVVrivC8XM" version="21.5.0" type="device">
  <diagram id="RJegbGbsM78swD17S6Np" name="Page-1">
    <mxGraphModel dx="1242" dy="1909" grid="1" gridSize="10" guides="1" tooltips="1" connect="1" arrows="1" fold="1" page="1" pageScale="1" pageWidth="850" pageHeight="1100" background="#FFFFFF" math="0" shadow="0">
      <root>
        <mxCell id="0" />
        <mxCell id="1" parent="0" />
        <mxCell id="P6smGd08yftEUrH7O6GD-159" style="edgeStyle=orthogonalEdgeStyle;rounded=0;orthogonalLoop=1;jettySize=auto;html=1;exitX=0;exitY=0.5;exitDx=0;exitDy=0;entryX=1.009;entryY=0.22;entryDx=0;entryDy=0;entryPerimeter=0;fontFamily=IBM Plex Sans;fontSource=fonts%2FIBMPlexSans-Regular.woff;fontSize=14;startArrow=oval;startFill=1;strokeColor=#198038;" parent="1" edge="1">
          <mxGeometry relative="1" as="geometry" />
        </mxCell>
        <mxCell id="P6smGd08yftEUrH7O6GD-563" value="" style="rounded=0;whiteSpace=wrap;html=1;fontFamily=IBM Plex Sans;fontSource=fonts%2FIBMPlexSans-Regular.woff;fontSize=14;fillColor=none;spacingBottom=-28;spacingTop=0;labelPosition=-100;verticalLabelPosition=top;align=center;verticalAlign=bottom;spacingLeft=9;spacing=0;expand=0;recursiveResize=0;spacingRight=0;container=1;collapsible=0;strokeColor=#FA4D56;strokeWidth=1;" parent="1" vertex="1">
          <mxGeometry x="110" y="-186" width="250" height="386" as="geometry">
            <mxRectangle width="670" as="alternateBounds" />
          </mxGeometry>
        </mxCell>
        <mxCell id="P6smGd08yftEUrH7O6GD-564" value="" style="rounded=0;whiteSpace=wrap;html=1;strokeColor=none;fillColor=#FA4D56;" parent="P6smGd08yftEUrH7O6GD-563" vertex="1">
          <mxGeometry width="7" height="37" as="geometry" />
        </mxCell>
        <mxCell id="P6smGd08yftEUrH7O6GD-565" value="Cloud Service Resource Group" style="text;html=1;strokeColor=none;fillColor=none;align=left;verticalAlign=middle;whiteSpace=wrap;rounded=0;fontFamily=IBM Plex Sans;fontSource=fonts%2FIBMPlexSans-Regular.woff;fontSize=14;" parent="P6smGd08yftEUrH7O6GD-563" vertex="1">
          <mxGeometry x="50.33" y="8" width="219.67" height="20" as="geometry" />
        </mxCell>
        <mxCell id="P6smGd08yftEUrH7O6GD-566" value="" style="shape=image;aspect=fixed;image=data:image/svg+xml,PD94bWwgdmVyc2lvbj0iMS4wIiBlbmNvZGluZz0iVVRGLTgiPz4KPHN2ZyB3aWR0aD0iMjlweCIgaGVpZ2h0PSIyOHB4IiB2aWV3Qm94PSIwIDAgMjkgMjgiIHZlcnNpb249IjEuMSIgeG1sbnM9Imh0dHA6Ly93d3cudzMub3JnLzIwMDAvc3ZnIiB4bWxuczp4bGluaz0iaHR0cDovL3d3dy53My5vcmcvMTk5OS94bGluayI+CiAgICA8IS0tIEdlbmVyYXRvcjogU2tldGNoIDUzICg3MjUyMCkgLSBodHRwczovL3NrZXRjaGFwcC5jb20gLS0+CiAgICA8dGl0bGU+UmVzb3VyY2UgR3JvdXAgQmxhY2s8L3RpdGxlPgogICAgPGRlc2M+Q3JlYXRlZCB3aXRoIFNrZXRjaC48L2Rlc2M+CiAgICA8ZGVmcz4KICAgICAgICA8cG9seWdvbiBpZD0icGF0aC0xIiBwb2ludHM9IjAgMCAyOCAwIDI4IDI4IDAgMjgiPjwvcG9seWdvbj4KICAgIDwvZGVmcz4KICAgIDxnIGlkPSJQYWdlLTEiIHN0cm9rZT0ibm9uZSIgc3Ryb2tlLXdpZHRoPSIxIiBmaWxsPSJub25lIiBmaWxsLXJ1bGU9ImV2ZW5vZGQiPgogICAgICAgIDxnIGlkPSJSZXNvdXJjZS1Hcm91cC1CbGFjayIgdHJhbnNmb3JtPSJ0cmFuc2xhdGUoMC4zNzUwMDAsIDAuMDAwMDAwKSI+CiAgICAgICAgICAgIDxtYXNrIGlkPSJtYXNrLTIiIGZpbGw9IndoaXRlIj4KICAgICAgICAgICAgICAgIDx1c2UgeGxpbms6aHJlZj0iI3BhdGgtMSI+PC91c2U+CiAgICAgICAgICAgIDwvbWFzaz4KICAgICAgICAgICAgPGcgaWQ9IkNsaXAtMiI+PC9nPgogICAgICAgICAgICA8cGF0aCBkPSJNOCwyMCBMMjAsMjAgTDIwLDggTDgsOCBMOCwyMCBaIE0yMCwyMiBMOCwyMiBDNi44OTYsMjEuOTk5IDYuMDAxLDIxLjEwNCA2LDIwIEw2LDggQzYuMDAxLDYuODk2IDYuODk2LDYuMDAxIDgsNiBMMjAsNiBDMjEuMTA0LDYuMDAxIDIxLjk5OSw2Ljg5NiAyMiw4IEwyMiwyMCBDMjEuOTk5LDIxLjEwNCAyMS4xMDQsMjEuOTk5IDIwLDIyIEwyMCwyMiBaIiBpZD0iRmlsbC0xIiBmaWxsPSIjMDAwMDAwIiBtYXNrPSJ1cmwoI21hc2stMikiPjwvcGF0aD4KICAgICAgICAgICAgPHBhdGggZD0iTTUuOTk5OCwyOCBMMS45OTk4LDI4IEMwLjg5NTgsMjcuOTk5IDAuMDAwOCwyNy4xMDQgLTAuMDAwMiwyNiBMLTAuMDAwMiwyIEMwLjAwMDgsMC44OTYgMC44OTU4LDAuMDAxIDEuOTk5OCwwIEw1Ljk5OTgsMCBMNS45OTk4LDIgTDEuOTk5OCwyIEwxLjk5OTgsMjYgTDUuOTk5OCwyNiBMNS45OTk4LDI4IFoiIGlkPSJGaWxsLTMiIGZpbGw9IiMwMDAwMDAiIG1hc2s9InVybCgjbWFzay0yKSI+PC9wYXRoPgogICAgICAgICAgICA8cGF0aCBkPSJNMjYuMDAwMywyOCBMMjIuMDAwMywyOCBMMjIuMDAwMywyNiBMMjYuMDAwMywyNiBMMjYuMDAwMywyIEwyMi4wMDAzLDIgTDIyLjAwMDMsMCBMMjYuMDAwMywwIEMyNy4xMDQzLDAuMDAxIDI3Ljk5OTMsMC44OTYgMjguMDAwMywyIEwyOC4wMDAzLDI2IEMyNy45OTkzLDI3LjEwNCAyNy4xMDQzLDI3Ljk5OSAyNi4wMDAzLDI4IiBpZD0iRmlsbC00IiBmaWxsPSIjMDAwMDAwIiBtYXNrPSJ1cmwoI21hc2stMikiPjwvcGF0aD4KICAgICAgICA8L2c+CiAgICA8L2c+Cjwvc3ZnPg==;" parent="P6smGd08yftEUrH7O6GD-563" vertex="1">
          <mxGeometry x="20" y="8.840000000000055" width="20" height="19.31" as="geometry" />
        </mxCell>
        <mxCell id="P6smGd08yftEUrH7O6GD-569" value="Transit&#xa;Gateway" style="shape=image;aspect=fixed;image=data:image/svg+xml,PHN2ZyBpZD0iTGF5ZXJfMSIgZGF0YS1uYW1lPSJMYXllciAxIiB4bWxucz0iaHR0cDovL3d3dy53My5vcmcvMjAwMC9zdmciIHZpZXdCb3g9IjAgMCA0OSA0OSI+PGRlZnM+PHN0eWxlPi5jbHMtMXtmaWxsOiMxMTkyZTg7fS5jbHMtMiwuY2xzLTR7ZmlsbDpub25lO30uY2xzLTJ7ZmlsbC1ydWxlOmV2ZW5vZGQ7fS5jbHMtM3tmaWxsOiNmZmY7fTwvc3R5bGU+PC9kZWZzPjxyZWN0IGNsYXNzPSJjbHMtMSIgeD0iMC41IiB5PSIwLjUiIHdpZHRoPSI0OCIgaGVpZ2h0PSI0OCIvPjxnIGlkPSJtYXNrLTIiPjxwb2x5Z29uIGlkPSJwYXRoLTEiIGNsYXNzPSJjbHMtMiIgcG9pbnRzPSIxNy4xOCAxNC4yOSAzNy4xNyAxNC4yOSAzNy4xNyAzNC4yOSAxNy4xOCAzNC4yOSAxNy4xOCAxNC4yOSIvPjwvZz48cGF0aCBjbGFzcz0iY2xzLTMiIGQ9Ik0zMC42OSwyNy41NmwyLjE4LTIuMTlhMS4yMSwxLjIxLDAsMCwwLDAtMS43NWwtMy4zMS0zLjMxLjg4LS44N2EuNTYuNTYsMCwwLDAsLjMxLjA2LDEuMjUsMS4yNSwwLDEsMC0xLjI1LTEuMjUuNTcuNTcsMCwwLDAsLjA2LjMxbC0zLjgxLDMuODJBMi4yNiwyLjI2LDAsMCwwLDI0LjUsMjJhMi4xOSwyLjE5LDAsMCwwLTEuMjUuMzhsLTIuMDYtMi4wN0wyNC41LDE3bDIuMTksMi4xOS44Ny0uODgtMi4xOS0yLjE5YTEuMjEsMS4yMSwwLDAsMC0xLjc0LDBsLTMuMzIsMy4zMi0uODctLjg4YS41Ny41NywwLDAsMCwuMDYtLjMxLDEuMjUsMS4yNSwwLDEsMC0xLjI1LDEuMjUuNTcuNTcsMCwwLDAsLjMxLS4wNmwzLjgyLDMuODFBMi4yNiwyLjI2LDAsMCwwLDIyLDI0LjVhMi4xOSwyLjE5LDAsMCwwLC4zOCwxLjI1bC0yLjA3LDIuMDZMMTcsMjQuNWwyLjE5LTIuMTktLjg4LS44Ny0yLjE5LDIuMTlhMS4yLDEuMiwwLDAsMCwwLDEuNzRsMy4zMiwzLjMyLS44OC44N2EuNTcuNTcsMCwwLDAtLjMxLS4wNiwxLjI1LDEuMjUsMCwxLDAsMS4yNSwxLjI1LjU2LjU2LDAsMCwwLS4wNi0uMzFsMy44MS0zLjgyYTIuMjUsMi4yNSwwLDAsMCwyLjUsMGwyLjA2LDIuMDdMMjQuNSwzMmwtMi4xOS0yLjE5LS44Ny44OCwyLjE5LDIuMThhMS4xOSwxLjE5LDAsMCwwLDEuNzQsMGwzLjMyLTMuMzEuODcuODhjMCwuMTItLjA2LjE4LS4wNi4zMWExLjI1LDEuMjUsMCwxLDAsMS4yNS0xLjI1LjU2LjU2LDAsMCwwLS4zMS4wNmwtMy44Mi0zLjgxYTIuMjUsMi4yNSwwLDAsMCwwLTIuNWwyLjA3LTIuMDZMMzIsMjQuNWwtMi4xOSwyLjE5Wk0yNC41LDI1Ljc1YTEuMjUsMS4yNSwwLDEsMSwxLjI1LTEuMjVBMS4yNSwxLjI1LDAsMCwxLDI0LjUsMjUuNzVaIi8+PHJlY3QgY2xhc3M9ImNscy00IiB4PSIxNC41IiB5PSIxNC41IiB3aWR0aD0iMjAiIGhlaWdodD0iMjAiLz48L3N2Zz4=;fontFamily=IBM Plex Sans;fontSource=fonts%2FIBMPlexSans-Regular.woff;fontSize=14;labelPosition=center;verticalLabelPosition=bottom;align=center;verticalAlign=top;spacingTop=0;" parent="P6smGd08yftEUrH7O6GD-563" vertex="1">
          <mxGeometry x="85" y="216" width="80" height="80" as="geometry" />
        </mxCell>
        <mxCell id="P6smGd08yftEUrH7O6GD-570" value="Key Management" style="shape=image;aspect=fixed;image=data:image/svg+xml,PD94bWwgdmVyc2lvbj0iMS4wIiBlbmNvZGluZz0iVVRGLTgiPz4KPHN2ZyB3aWR0aD0iNDlweCIgaGVpZ2h0PSI0OXB4IiB2aWV3Qm94PSIwIDAgNDkgNDkiIHZlcnNpb249IjEuMSIgeG1sbnM9Imh0dHA6Ly93d3cudzMub3JnLzIwMDAvc3ZnIiB4bWxuczp4bGluaz0iaHR0cDovL3d3dy53My5vcmcvMTk5OS94bGluayI+CiAgICA8dGl0bGU+S2V5IFByb3RlY3QgdjIgSWNvbjwvdGl0bGU+CiAgICA8ZyBpZD0iUGFnZS0xIiBzdHJva2U9Im5vbmUiIHN0cm9rZS13aWR0aD0iMSIgZmlsbD0ibm9uZSIgZmlsbC1ydWxlPSJldmVub2RkIj4KICAgICAgICA8ZyBpZD0idjItNDh4NDgiIHRyYW5zZm9ybT0idHJhbnNsYXRlKC0yMjk4LjAwMDAwMCwgLTc0MC4wMDAwMDApIj4KICAgICAgICAgICAgPGcgaWQ9IktleS1Qcm90ZWN0LXYyLUljb24iIHRyYW5zZm9ybT0idHJhbnNsYXRlKDIyOTguODcyMjEzLCA3NDAuOTM2MjIzKSI+CiAgICAgICAgICAgICAgICA8ZyBpZD0iU2VjcmV0cy1NYW5hZ2VyLXYyLUljb24iIGZpbGw9IiNGQTRENTYiPgogICAgICAgICAgICAgICAgICAgIDxwb2x5Z29uIGlkPSJGaWxsLTQiIHBvaW50cz0iMCA0OCA0OCA0OCA0OCAwIDAgMCI+PC9wb2x5Z29uPgogICAgICAgICAgICAgICAgPC9nPgogICAgICAgICAgICAgICAgPGcgaWQ9ImlibS1jbG91ZC0ta2V5LXByb3RlY3QiIHRyYW5zZm9ybT0idHJhbnNsYXRlKDguMDAwMDAwLCA4LjAwMDAwMCkiPgogICAgICAgICAgICAgICAgICAgIDxwYXRoIGQ9Ik0yNiwxNC4xIEwyNiwyIEwyMSwyIEwyMSw0IEwyNCw0IEwyNCw2IEwyMSw2IEwyMSw4IEwyNCw4IEwyNCwxNC4xIEMyMi4zLDE0LjUgMjEsMTYuMSAyMSwxOCBDMjEsMjAuMiAyMi44LDIyIDI1LDIyIEMyNy4yLDIyIDI5LDIwLjIgMjksMTggQzI5LDE2LjEgMjcuNywxNC42IDI2LDE0LjEgWiBNMjUsMjAgQzIzLjksMjAgMjMsMTkuMSAyMywxOCBDMjMsMTYuOSAyMy45LDE2IDI1LDE2IEMyNi4xLDE2IDI3LDE2LjkgMjcsMTggQzI3LDE5LjEgMjYuMSwyMCAyNSwyMCBaIiBpZD0iU2hhcGUiIGZpbGw9IiNGRkZGRkYiIGZpbGwtcnVsZT0ibm9uemVybyI+PC9wYXRoPgogICAgICAgICAgICAgICAgICAgIDxwYXRoIGQ9Ik0xNSwzMSBMOS41LDI3LjggQzYuMSwyNS44IDQsMjIuMiA0LDE4LjMgTDQsNCBDNCwyLjkgNC45LDIgNiwyIEwxOCwyIEwxOCw0IEw2LDQgTDYsMTguMyBDNiwyMS41IDcuNywyNC41IDEwLjUsMjYuMSBMMTUsMjguOCBMMTkuNSwyNi4xIEMyMC42LDI1LjQgMjEuNiwyNC42IDIyLjMsMjMuNSBMMjMuOSwyNC42IEMyMywyNS45IDIxLjgsMjcgMjAuNCwyNy44IEwxNSwzMSBaIiBpZD0iUGF0aCIgZmlsbD0iI0ZGRkZGRiIgZmlsbC1ydWxlPSJub256ZXJvIj48L3BhdGg+CiAgICAgICAgICAgICAgICAgICAgPHJlY3QgaWQ9Il94M0NfVHJhbnNwYXJlbnRfUmVjdGFuZ2xlX3gzRV9fMjMyXyIgeD0iMCIgeT0iMCIgd2lkdGg9IjMyIiBoZWlnaHQ9IjMyIj48L3JlY3Q+CiAgICAgICAgICAgICAgICA8L2c+CiAgICAgICAgICAgIDwvZz4KICAgICAgICA8L2c+CiAgICA8L2c+Cjwvc3ZnPg==;fontFamily=IBM Plex Sans;fontSource=fonts%2FIBMPlexSans-Regular.woff;fontSize=14;labelPosition=center;verticalLabelPosition=bottom;align=center;verticalAlign=top;spacingTop=0;" parent="P6smGd08yftEUrH7O6GD-563" vertex="1">
          <mxGeometry x="85" y="66" width="80" height="80" as="geometry" />
        </mxCell>
        <mxCell id="P6smGd08yftEUrH7O6GD-55" value="" style="rounded=0;whiteSpace=wrap;html=1;fontFamily=IBM Plex Sans;fontSource=fonts%2FIBMPlexSans-Regular.woff;fontSize=14;spacingBottom=-28;spacingTop=0;labelPosition=-100;verticalLabelPosition=top;align=center;verticalAlign=bottom;spacingLeft=9;spacing=0;expand=0;recursiveResize=0;spacingRight=0;container=1;collapsible=0;strokeColor=#1192E8;fillColor=none;" parent="P6smGd08yftEUrH7O6GD-563" vertex="1">
          <mxGeometry x="-20" y="-44" width="290" height="454" as="geometry">
            <mxRectangle width="670" as="alternateBounds" />
          </mxGeometry>
        </mxCell>
        <mxCell id="P6smGd08yftEUrH7O6GD-56" value="" style="rounded=0;whiteSpace=wrap;html=1;strokeColor=none;fillColor=#1192E8;" parent="P6smGd08yftEUrH7O6GD-55" vertex="1">
          <mxGeometry width="7" height="37" as="geometry" />
        </mxCell>
        <mxCell id="P6smGd08yftEUrH7O6GD-57" value="Cloud Services" style="text;html=1;strokeColor=none;fillColor=none;align=left;verticalAlign=middle;whiteSpace=wrap;rounded=0;fontFamily=IBM Plex Sans;fontSource=fonts%2FIBMPlexSans-Regular.woff;fontSize=14;" parent="P6smGd08yftEUrH7O6GD-55" vertex="1">
          <mxGeometry x="51" y="8" width="163" height="20" as="geometry" />
        </mxCell>
        <mxCell id="P6smGd08yftEUrH7O6GD-58" value="" style="shape=image;aspect=fixed;image=data:image/svg+xml,PD94bWwgdmVyc2lvbj0iMS4wIiBlbmNvZGluZz0iVVRGLTgiPz4KPHN2ZyB3aWR0aD0iMzNweCIgaGVpZ2h0PSIyNnB4IiB2aWV3Qm94PSIwIDAgMzMgMjYiIHZlcnNpb249IjEuMSIgeG1sbnM9Imh0dHA6Ly93d3cudzMub3JnLzIwMDAvc3ZnIiB4bWxuczp4bGluaz0iaHR0cDovL3d3dy53My5vcmcvMTk5OS94bGluayI+CiAgICA8IS0tIEdlbmVyYXRvcjogU2tldGNoIDUzICg3MjUyMCkgLSBodHRwczovL3NrZXRjaGFwcC5jb20gLS0+CiAgICA8dGl0bGU+Q2xvdWQgU2VydmljZXMgQmxhY2s8L3RpdGxlPgogICAgPGRlc2M+Q3JlYXRlZCB3aXRoIFNrZXRjaC48L2Rlc2M+CiAgICA8ZyBpZD0iUGFnZS0xIiBzdHJva2U9Im5vbmUiIHN0cm9rZS13aWR0aD0iMSIgZmlsbD0ibm9uZSIgZmlsbC1ydWxlPSJldmVub2RkIj4KICAgICAgICA8ZyBpZD0iQ2xvdWQtU2VydmljZXMtQmxhY2siIHRyYW5zZm9ybT0idHJhbnNsYXRlKDAuMDYyNTAwLCAtMS4wMDAwMDApIiBmaWxsPSIjMDAwMDAwIj4KICAgICAgICAgICAgPGcgaWQ9Ikdyb3VwLTMiIHRyYW5zZm9ybT0idHJhbnNsYXRlKDAuMDAwMDAwLCAwLjAwMjAwMCkiPgogICAgICAgICAgICAgICAgPHBhdGggZD0iTTI1LjgyMzEsOS4xMjQgQzI0Ljc4NzEsMy43IDE5LjU1MTEsMC4xNDIgMTQuMTI2MSwxLjE3NyBDMTAuMDk4MSwxLjk0NiA2Ljk0ODEsNS4wOTYgNi4xNzkxLDkuMTI0IEMwLjA5MjEsMTAuMjExIC0yLjk1NzksMTguMzYzIDMuOTY0MSwyMy42MzIgQzQuMjg1MSwyMy44NzcgNC42ODkxLDI0IDUuMDkzMSwyNCBMOC4wMDExLDI0IEw4LjAwMTEsMjIgTDUuNDQ4MSwyMiBDNS4xMDQxLDIyIDQuNzYyMSwyMS44NzcgNC41MTExLDIxLjY0MiBDLTAuMzUzOSwxNy4wODYgMi41ODYxLDExLjMzIDcuMTI0MSwxMS4wMiBMNy45NjExLDEwLjk2MyBMOC4zNTYxLDcuMjk4IEM4LjQwNzEsNi44MzIgOC42MTMxLDYuMzg2IDguOTU3MSw2LjA2NyBDMTUuNjAxMSwtMC4wOTQgMjMuMjc2MSwzLjkzNyAyMy45NTIxLDEwLjEzIEwyNC4wNDIxLDEwLjk2MyBMMjYuOTI2MSwxMS4xNiBDMjcuMjY5MSwxMS4xODQgMjcuNjAxMSwxMS4zMyAyNy44MzUxLDExLjU4MiBDMzIuMzc5MSwxNi40NiAyOS4wNTAxLDIyLjAwMyAyNC41MDExLDIyIEwyNC4wMDExLDIyIEwyNC4wMDExLDI0IEwyNy4yMTUxLDI0IEMyNy42NjExLDI0IDI4LjEwMzEsMjMuODQ4IDI4LjQzNzEsMjMuNTUyIEMzNC45MTQxLDE3LjgxNiAzMS42NjgxLDEwLjE2OCAyNS44MjMxLDkuMTI0IiBpZD0iRmlsbC0xIj48L3BhdGg+CiAgICAgICAgICAgIDwvZz4KICAgICAgICAgICAgPHBhdGggZD0iTTE1LjU3NCwyMi44MjU3IEMxMy45MTcsMjIuODI1NyAxMi41NzQsMjEuNDgyNyAxMi41NzQsMTkuODI1NyBDMTIuNTc0LDE4LjE2ODcgMTMuOTE3LDE2LjgyNTcgMTUuNTc0LDE2LjgyNTcgQzE3LjIzMSwxNi44MjU3IDE4LjU3NCwxOC4xNjg3IDE4LjU3NCwxOS44MjU3IEMxOC41NzIsMjEuNDgxNyAxNy4yMywyMi44MjM3IDE1LjU3NCwyMi44MjU3IEwxNS41NzQsMjIuODI1NyBaIE0yMy4wMDEsMjEuMDAxNyBMMjMuMDAxLDE5LjAwMTcgTDIwLjksMTkuMDAxNyBDMjAuNzcxLDE4LjM3NTcgMjAuNTIzLDE3Ljc4MDcgMjAuMTY4LDE3LjI0ODcgTDIxLjY1OCwxNS43NTk3IEwyMC4yNDQsMTQuMzQ1NyBMMTguNzU0LDE1LjgzNDcgQzE4LjIyMiwxNS40ODA3IDE3LjYyNywxNS4yMzE3IDE3LjAwMSwxNS4xMDI3IEwxNy4wMDEsMTMuMDAxNyBMMTUuMDAxLDEzLjAwMTcgTDE1LjAwMSwxNS4xMDI3IEMxNC4zNzUsMTUuMjMxNyAxMy43OCwxNS40ODA3IDEzLjI0OCwxNS44MzQ3IEwxMS43NTgsMTQuMzQ0NyBMMTAuMzQ1LDE1Ljc1ODcgTDExLjgzNCwxNy4yNDg3IEMxMS40OCwxNy43ODA3IDExLjIzMSwxOC4zNzU3IDExLjEwMiwxOS4wMDE3IEw5LjAwMSwxOS4wMDE3IEw5LjAwMSwyMS4wMDE3IEwxMS4xMDIsMjEuMDAxNyBDMTEuMjMxLDIxLjYyNzcgMTEuNDgsMjIuMjIyNyAxMS44MzQsMjIuNzU0NyBMMTAuMzQ0LDI0LjI0NDcgTDExLjc1OCwyNS42NTg3IEwxMy4yNDgsMjQuMTY4NyBDMTMuNzgsMjQuNTIzNyAxNC4zNzUsMjQuNzcxNyAxNS4wMDEsMjQuOTAwNyBMMTUuMDAxLDI3LjAwMTcgTDE3LjAwMSwyNy4wMDE3IEwxNy4wMDEsMjQuOTAwNyBDMTcuNjI3LDI0Ljc3MTcgMTguMjIyLDI0LjUyMzcgMTguNzU0LDI0LjE2ODcgTDIwLjI0NCwyNS42NTg3IEwyMS42NTgsMjQuMjQ0NyBMMjAuMTY4LDIyLjc1NDcgQzIwLjUyMywyMi4yMjI3IDIwLjc3MSwyMS42Mjc3IDIwLjksMjEuMDAxNyBMMjMuMDAxLDIxLjAwMTcgWiIgaWQ9IkZpbGwtNCI+PC9wYXRoPgogICAgICAgIDwvZz4KICAgIDwvZz4KPC9zdmc+;" parent="P6smGd08yftEUrH7O6GD-55" vertex="1">
          <mxGeometry x="20" y="6.65" width="25" height="19.71" as="geometry" />
        </mxCell>
        <mxCell id="P6smGd08yftEUrH7O6GD-603" value="" style="rounded=0;whiteSpace=wrap;html=1;fontFamily=IBM Plex Sans;fontSource=fonts%2FIBMPlexSans-Regular.woff;fontSize=14;spacingBottom=-28;spacingTop=0;labelPosition=-100;verticalLabelPosition=top;align=center;verticalAlign=bottom;spacingLeft=9;spacing=0;expand=0;recursiveResize=0;spacingRight=0;container=1;collapsible=0;strokeColor=#00882B;fillColor=none;" parent="P6smGd08yftEUrH7O6GD-55" vertex="1">
          <mxGeometry x="-20" y="-50" width="1100" height="520" as="geometry">
            <mxRectangle width="670" as="alternateBounds" />
          </mxGeometry>
        </mxCell>
        <mxCell id="P6smGd08yftEUrH7O6GD-604" value="" style="rounded=0;whiteSpace=wrap;html=1;strokeColor=none;fillColor=#00882B;" parent="P6smGd08yftEUrH7O6GD-603" vertex="1">
          <mxGeometry width="7" height="37" as="geometry" />
        </mxCell>
        <mxCell id="P6smGd08yftEUrH7O6GD-605" value="IBM Cloud" style="text;html=1;strokeColor=none;fillColor=none;align=left;verticalAlign=middle;whiteSpace=wrap;rounded=0;fontFamily=IBM Plex Sans;fontSource=fonts%2FIBMPlexSans-Regular.woff;fontSize=14;" parent="P6smGd08yftEUrH7O6GD-603" vertex="1">
          <mxGeometry x="51" y="8" width="163" height="20" as="geometry" />
        </mxCell>
        <mxCell id="P6smGd08yftEUrH7O6GD-606" value="" style="shape=image;aspect=fixed;image=data:image/svg+xml,PD94bWwgdmVyc2lvbj0iMS4wIiBlbmNvZGluZz0iVVRGLTgiPz4KPHN2ZyB3aWR0aD0iMzNweCIgaGVpZ2h0PSIzMXB4IiB2aWV3Qm94PSIwIDAgMzMgMzEiIHZlcnNpb249IjEuMSIgeG1sbnM9Imh0dHA6Ly93d3cudzMub3JnLzIwMDAvc3ZnIiB4bWxuczp4bGluaz0iaHR0cDovL3d3dy53My5vcmcvMTk5OS94bGluayI+CiAgICA8IS0tIEdlbmVyYXRvcjogU2tldGNoIDUzICg3MjUyMCkgLSBodHRwczovL3NrZXRjaGFwcC5jb20gLS0+CiAgICA8dGl0bGU+SUJNIENsb3VkIEJsYWNrPC90aXRsZT4KICAgIDxkZXNjPkNyZWF0ZWQgd2l0aCBTa2V0Y2guPC9kZXNjPgogICAgPGcgaWQ9IlBhZ2UtMSIgc3Ryb2tlPSJub25lIiBzdHJva2Utd2lkdGg9IjEiIGZpbGw9Im5vbmUiIGZpbGwtcnVsZT0iZXZlbm9kZCI+CiAgICAgICAgPGcgaWQ9IklCTS1DbG91ZC1CbGFjayIgdHJhbnNmb3JtPSJ0cmFuc2xhdGUoMC43ODQ3MjIsIDAuNTAwMTI1KSIgZmlsbD0iIzAwMDAwMCI+CiAgICAgICAgICAgIDxwYXRoIGQ9Ik0yNy4xMDIxLDI3LjAxMDYgQzI1Ljg3MDEsMjcuODc5NiAyNC4zNjExLDI4LjI2NzYgMjIuODUzMSwyOC4yNjc2IEw3LjAwNDEsMjguMjY3NiBDNC4xMTIxLDI4LjI3NDYgMS43NjIxLDI1LjkzNDYgMS43NTUxLDIzLjA0MjYgQzEuNzQ5MSwyMC40MTA2IDMuNjk3MSwxOC4xODM2IDYuMzA1MSwxNy44Mzg2IEM2LjQxMTEsMTkuMTYxNiA2Ljc4NzEsMjAuNDQ5NiA3LjQwOTEsMjEuNjIxNiBDNy41OTUxLDIxLjk5MTYgOC4wNDYxLDIyLjE0MDYgOC40MTYxLDIxLjk1NDYgQzguNzg2MSwyMS43Njc2IDguOTM1MSwyMS4zMTc2IDguNzQ4MSwyMC45NDc2IEw4LjczMDEsMjAuOTEyNiBDNy4xMzIxLDE3LjkzNTYgNy40MjkxLDE0LjIxNzYgOS42NzIxLDExLjY4OTYgQzEzLjQ4NjEsNy4zOTI2IDE5Ljc4NzEsOC4wNTI2IDIyLjc1NzEsMTIuMjgxNiBDMjAuMzM0MSwxMi4zNDc2IDE4LjA0NzEsMTMuNDE1NiAxNi40NDExLDE1LjIzMDYgQzE2LjE2MTEsMTUuNTM1NiAxNi4xODExLDE2LjAxMDYgMTYuNDg1MSwxNi4yOTA2IEMxNi43ODkxLDE2LjU3MTYgMTcuMjY0MSwxNi41NTI2IDE3LjU0NTEsMTYuMjQ3NiBMMTcuNTY2MSwxNi4yMjI2IEMxOS41OTUxLDEzLjkyMzYgMjIuODg0MSwxMy4wNTI2IDI1LjcwMzEsMTQuMjYzNiBDMzEuMTY1MSwxNi42MDk2IDMxLjgxMDEsMjMuNjkyNiAyNy4xMDIxLDI3LjAxMDYgTTI0LjU4NTEsMTIuOTE3NiBDMjIuMDU0MSw4LjE3NTYgMTYuMTU5MSw2LjM4MjYgMTEuNDE2MSw4LjkxMzYgQzguNDY1MSwxMC40ODg2IDYuNTI5MSwxMy40Njg2IDYuMjkwMSwxNi44MDY2IEMyLjU4NDEsMTcuMjA0NiAtMC4wOTc5LDIwLjUzMjYgMC4zMDExLDI0LjIzOTYgQzAuNjY5MSwyNy42NjU2IDMuNTU5MSwzMC4yNjM2IDcuMDA0MSwzMC4yNjc2IEwyMy4wMDQxLDMwLjI2NzYgQzI3LjgzNTEsMzAuMjcwNiAzMS43NTMxLDI2LjM1NzYgMzEuNzU2MSwyMS41MjY2IEMzMS43NTkxLDE3LjMwMTYgMjguNzQxMSwxMy42Nzg2IDI0LjU4NTEsMTIuOTE3NiIgaWQ9IkZpbGwtMSI+PC9wYXRoPgogICAgICAgICAgICA8ZyBpZD0iR3JvdXAtNSIgdHJhbnNmb3JtPSJ0cmFuc2xhdGUoMjcuMDAwMDAwLCA4LjI2NzcwMCkiPgogICAgICAgICAgICAgICAgPHBhdGggZD0iTTQuOTAyOCwwLjkxOTcgQzQuNjkzOCwwLjU1NjcgNC4yMjk4LDAuNDMyNyAzLjg2NjgsMC42NDE3IEMzLjg2NjgsMC42NDE3IDMuODY2OCwwLjY0MTcgMy44NjY4LDAuNjQyNyBMMC44NDY4LDIuMzg1NyBDMC40Nzg4LDIuNTg2NyAwLjM0MzgsMy4wNDc3IDAuNTQ0OCwzLjQxNTcgQzAuNzQ1OCwzLjc4MzcgMS4yMDY4LDMuOTE4NyAxLjU3NDgsMy43MTc3IEMxLjU4NDgsMy43MTE3IDEuNTk0OCwzLjcwNTcgMS42MDQ4LDMuNjk5NyBMNC42MjQ4LDEuOTU2NyBDNC45ODc4LDEuNzQ2NyA1LjExMTgsMS4yODI3IDQuOTAyOCwwLjkxOTciIGlkPSJGaWxsLTMiPjwvcGF0aD4KICAgICAgICAgICAgPC9nPgogICAgICAgICAgICA8cGF0aCBkPSJNMjIuNjgxMiw2LjgwMjYgQzIzLjA0MzIsNy4wMTI2IDIzLjUwNzIsNi44ODg2IDIzLjcxNzIsNi41MjU2IEwyMy43MTcyLDYuNTI1NiBMMjUuNDYxMiwzLjUwNTYgQzI1LjY2ODIsMy4xNDA2IDI1LjU0MDIsMi42Nzc2IDI1LjE3NjIsMi40NzA2IEMyNC44MTUyLDIuMjY2NiAyNC4zNTcyLDIuMzg4NiAyNC4xNDcyLDIuNzQ2NiBMMjIuNDAzMiw1Ljc2NjYgQzIyLjE5NDIsNi4xMjk2IDIyLjMxODIsNi41OTM2IDIyLjY4MTIsNi44MDI2IiBpZD0iRmlsbC02Ij48L3BhdGg+CiAgICAgICAgICAgIDxwYXRoIGQ9Ik0xNi4wMDQ0LDUuMDE0MSBDMTYuNDIzNCw1LjAxNDEgMTYuNzYzNCw0LjY3NDEgMTcuMzM1NCw0LjI1NTEgTDE3LjMzNTQsMC43NjcxIEMxNi43Njg0LDAuMzQ4MSAxNi40MzI0LDAuMDA1MSAxNi4wMTM0LDAuMDAwMSBDMTUuNTk0NCwtMC4wMDQ5IDE1LjI1MTQsMC4zMzExIDE1LjMzNTQsMC43NTAxIEwxNS4zMzU0LDAuNzY3MSBMMTUuMzM1NCw0LjI1NTEgQzE1LjI0NjQsNC42NzQxIDE1LjU4NTQsNS4wMTQxIDE2LjAwNDQsNS4wMTQxIiBpZD0iRmlsbC04Ij48L3BhdGg+CiAgICAgICAgICAgIDxwYXRoIGQ9Ik04LjI5Miw2LjUyNDggQzguNTA0LDYuODg1OCA4Ljk2OSw3LjAwNjggOS4zMzEsNi43OTQ4IEM5LjY4OCw2LjU4NDggOS44MTEsNi4xMjY4IDkuNjA2LDUuNzY1OCBMNy44NjIsMi43NDU4IEM3LjY1NSwyLjM4MTggNy4xOTIsMi4yNTM4IDYuODI4LDIuNDYwOCBDNi40NjMsMi42Njc4IDYuMzM1LDMuMTMwOCA2LjU0MiwzLjQ5NDggQzYuNTQ0LDMuNDk4OCA2LjU0NiwzLjUwMTggNi41NDgsMy41MDQ4IEw4LjI5Miw2LjUyNDggWiIgaWQ9IkZpbGwtMTAiPjwvcGF0aD4KICAgICAgICAgICAgPGcgaWQ9Ikdyb3VwLTE0IiB0cmFuc2Zvcm09InRyYW5zbGF0ZSgwLjAwMDAwMCwgOC4yNjc3MDApIj4KICAgICAgICAgICAgICAgIDxwYXRoIGQ9Ik00LjE2MzEsMi4zODYgTDEuMTQzMSwwLjY0MiBDMC43ODIxLDAuNDMgMC4zMTcxLDAuNTUxIDAuMTA0MSwwLjkxMiBDLTAuMTA3OSwxLjI3MyAwLjAxMzEsMS43MzkgMC4zNzQxLDEuOTUgQzAuMzc4MSwxLjk1MiAwLjM4MTEsMS45NTQgMC4zODQxLDEuOTU2IEwzLjQwNTEsMy43IEMzLjc2NjEsMy45MTIgNC4yMzExLDMuNzkxIDQuNDQzMSwzLjQzIEM0LjY1NTEsMy4wNjkgNC41MzUxLDIuNjA0IDQuMTczMSwyLjM5MiBDNC4xNzAxLDIuMzkgNC4xNjYxLDIuMzg4IDQuMTYzMSwyLjM4NiBaIiBpZD0iRmlsbC0xMiI+PC9wYXRoPgogICAgICAgICAgICA8L2c+CiAgICAgICAgPC9nPgogICAgPC9nPgo8L3N2Zz4=;" parent="P6smGd08yftEUrH7O6GD-603" vertex="1">
          <mxGeometry x="20" y="7" width="21" height="19.73" as="geometry" />
        </mxCell>
        <mxCell id="P6smGd08yftEUrH7O6GD-479" value="Virtual Server" style="shape=image;aspect=fixed;image=data:image/svg+xml,PHN2ZyBpZD0iTGF5ZXJfMSIgZGF0YS1uYW1lPSJMYXllciAxIiB4bWxucz0iaHR0cDovL3d3dy53My5vcmcvMjAwMC9zdmciIHZpZXdCb3g9IjAgMCA0OSA0OSI+PGRlZnM+PHN0eWxlPi5jbHMtMXtmaWxsOiMxOTgwMzg7fS5jbHMtMntmaWxsOiNmZmY7fS5jbHMtM3tmaWxsOm5vbmU7fTwvc3R5bGU+PC9kZWZzPjxyZWN0IGNsYXNzPSJjbHMtMSIgeD0iMC41IiB5PSIwLjUiIHdpZHRoPSI0OCIgaGVpZ2h0PSI0OCIvPjxwYXRoIGNsYXNzPSJjbHMtMiIgZD0iTTI5LjE5LDI3LjYyaC0uMzFWMjYuMzhoLjMxYTIuODEsMi44MSwwLDAsMCwuMjItNS42MmwtLjUxLDAtLjA2LS41MWE0LjM3LDQuMzcsMCwwLDAtOC42OCwwbC0uMDYuNTEtLjUxLDBhMi44MSwyLjgxLDAsMCwwLC4yMiw1LjYyaC4zMXYxLjI0aC0uMzFhNC4wNiw0LjA2LDAsMCwxLS44MS04LDUuNjIsNS42MiwwLDAsMSwxMSwwLDQuMDYsNC4wNiwwLDAsMS0uODEsOFoiLz48Y2lyY2xlIGNsYXNzPSJjbHMtMiIgY3g9IjIwLjEzIiBjeT0iMzEuMzgiIHI9IjAuNjMiLz48cGF0aCBjbGFzcz0iY2xzLTIiIGQ9Ik0zMC43NSwyOC44OEgyNS4xMlYyNC4zOUwyNi43NCwyNmwuODgtLjg5TDI0LjUsMjJsLTMuMTIsMy4xMi44OC44OSwxLjYyLTEuNjJ2NC40OUgxOC4yNUExLjI1LDEuMjUsMCwwLDAsMTcsMzAuMTJ2Mi41YTEuMjYsMS4yNiwwLDAsMCwxLjI1LDEuMjZoMTIuNUExLjI2LDEuMjYsMCwwLDAsMzIsMzIuNjJ2LTIuNUExLjI1LDEuMjUsMCwwLDAsMzAuNzUsMjguODhabTAsMy43NEgxOC4yNXYtMi41aDEyLjVaIi8+PHJlY3QgY2xhc3M9ImNscy0zIiB4PSIxNC41IiB5PSIxNC41IiB3aWR0aD0iMjAiIGhlaWdodD0iMjAiLz48L3N2Zz4=;fontSize=14;fontFamily=IBM Plex Sans;fontSource=fonts%2FIBMPlexSans-Regular.woff;labelPosition=center;verticalLabelPosition=bottom;align=center;verticalAlign=middle;spacingTop=-47;" parent="1" vertex="1">
          <mxGeometry x="540" y="10" width="80" height="80" as="geometry" />
        </mxCell>
        <mxCell id="P6smGd08yftEUrH7O6GD-21" value="" style="rounded=0;whiteSpace=wrap;html=1;fontFamily=IBM Plex Sans;fontSource=fonts%2FIBMPlexSans-Regular.woff;fontSize=14;spacingBottom=-28;spacingTop=0;labelPosition=-100;verticalLabelPosition=top;align=center;verticalAlign=bottom;spacingLeft=9;spacing=0;expand=0;recursiveResize=0;spacingRight=0;container=0;collapsible=0;strokeColor=#878d96;fillColor=#E6E6E6;labelBackgroundColor=#9999FF;labelBorderColor=none;" parent="1" vertex="1">
          <mxGeometry x="440" y="-147" width="280" height="307" as="geometry">
            <mxRectangle width="670" as="alternateBounds" />
          </mxGeometry>
        </mxCell>
        <mxCell id="P6smGd08yftEUrH7O6GD-22" value="" style="rounded=0;whiteSpace=wrap;html=1;strokeColor=none;fillColor=#878d96;" parent="1" vertex="1">
          <mxGeometry x="440" y="-147" width="7" height="37" as="geometry" />
        </mxCell>
        <mxCell id="P6smGd08yftEUrH7O6GD-23" value="Zone 1" style="text;html=1;strokeColor=none;fillColor=none;align=left;verticalAlign=middle;whiteSpace=wrap;rounded=0;fontFamily=IBM Plex Sans;fontSource=fonts%2FIBMPlexSans-Regular.woff;fontSize=14;" parent="1" vertex="1">
          <mxGeometry x="491" y="-139" width="168" height="20" as="geometry" />
        </mxCell>
        <mxCell id="P6smGd08yftEUrH7O6GD-24" value="" style="shape=image;aspect=fixed;image=data:image/svg+xml,PD94bWwgdmVyc2lvbj0iMS4wIiBlbmNvZGluZz0iVVRGLTgiPz4KPHN2ZyB3aWR0aD0iMjlweCIgaGVpZ2h0PSIyNnB4IiB2aWV3Qm94PSIwIDAgMjkgMjYiIHZlcnNpb249IjEuMSIgeG1sbnM9Imh0dHA6Ly93d3cudzMub3JnLzIwMDAvc3ZnIiB4bWxuczp4bGluaz0iaHR0cDovL3d3dy53My5vcmcvMTk5OS94bGluayI+CiAgICA8IS0tIEdlbmVyYXRvcjogU2tldGNoIDUzICg3MjUyMCkgLSBodHRwczovL3NrZXRjaGFwcC5jb20gLS0+CiAgICA8dGl0bGU+Wm9uZSBCbGFjazwvdGl0bGU+CiAgICA8ZGVzYz5DcmVhdGVkIHdpdGggU2tldGNoLjwvZGVzYz4KICAgIDxnIGlkPSJQYWdlLTEiIHN0cm9rZT0ibm9uZSIgc3Ryb2tlLXdpZHRoPSIxIiBmaWxsPSJub25lIiBmaWxsLXJ1bGU9ImV2ZW5vZGQiPgogICAgICAgIDxnIGlkPSJab25lLUJsYWNrIiB0cmFuc2Zvcm09InRyYW5zbGF0ZSgwLjEyNTAwMCwgMC4wMDAwMDApIiBmaWxsPSIjMDAwMDAwIj4KICAgICAgICAgICAgPGcgaWQ9Ikdyb3VwLTMiPgogICAgICAgICAgICAgICAgPHBhdGggZD0iTTI2LjAwMDEsMjQuMDAwMSBMMjEuMDAwMSwyNC4wMDAxIEwyMS4wMDAxLDIwLjAwMDEgTDIzLjAwMDEsMjAuMDAwMSBMMjMuMDAwMSwxOC4wMDAxIEwyMS4wMDAxLDE4LjAwMDEgTDIxLjAwMDEsMTYuMDAwMSBMMjMuMDAwMSwxNi4wMDAxIEwyMy4wMDAxLDE0LjAwMDEgTDIxLjAwMDEsMTQuMDAwMSBMMjEuMDAwMSwxMi4wMDAxIEwyMy4wMDAxLDEyLjAwMDEgTDIzLjAwMDEsMTAuMDAwMSBMMjEuMDAwMSwxMC4wMDAxIEwyMS4wMDAxLDguMDAwMSBMMjYuMDAwMSw4LjAwMDEgTDI2LjAwMDEsMjQuMDAwMSBaIE05LjAwMDEsMjQuMDAwMSBMMTkuMDAwMSwyNC4wMDAxIEwxOS4wMDAxLDIuMDAwMSBMOS4wMDAxLDIuMDAwMSBMOS4wMDAxLDI0LjAwMDEgWiBNMi4wMDAxLDI0LjAwMDEgTDIuMDAwMSw4LjAwMDEgTDcuMDAwMSw4LjAwMDEgTDcuMDAwMSwxMC4wMDAxIEw1LjAwMDEsMTAuMDAwMSBMNS4wMDAxLDEyLjAwMDEgTDcuMDAwMSwxMi4wMDAxIEw3LjAwMDEsMTQuMDAwMSBMNS4wMDAxLDE0LjAwMDEgTDUuMDAwMSwxNi4wMDAxIEw3LjAwMDEsMTYuMDAwMSBMNy4wMDAxLDE4LjAwMDEgTDUuMDAwMSwxOC4wMDAxIEw1LjAwMDEsMjAuMDAwMSBMNy4wMDAxLDIwLjAwMDEgTDcuMDAwMSwyNC4wMDAxIEwyLjAwMDEsMjQuMDAwMSBaIE0yNi4wMDAxLDYuMDAwMSBMMjEuMDAwMSw2LjAwMDEgTDIxLjAwMDEsMi4wMDAxIEMyMC45OTkxLDAuODk2MSAyMC4xMDQxLDAuMDAxMSAxOS4wMDAxLDAuMDAwMSBMOS4wMDAxLDAuMDAwMSBDNy44OTYxLDAuMDAxMSA3LjAwMTEsMC44OTYxIDcuMDAwMSwyLjAwMDEgTDcuMDAwMSw2LjAwMDEgTDIuMDAwMSw2LjAwMDEgQzAuODk2MSw2LjAwMTEgMC4wMDExLDYuODk2MSAwLjAwMDEsOC4wMDAxIEwwLjAwMDEsMjQuMDAwMSBDMC4wMDExLDI1LjEwNDEgMC44OTYxLDI1Ljk5OTEgMi4wMDAxLDI2LjAwMDEgTDI2LjAwMDEsMjYuMDAwMSBDMjcuMTA0MSwyNS45OTkxIDI3Ljk5OTEsMjUuMTA0MSAyOC4wMDAxLDI0LjAwMDEgTDI4LjAwMDEsOC4wMDAxIEMyNy45OTkxLDYuODk2MSAyNy4xMDQxLDYuMDAxMSAyNi4wMDAxLDYuMDAwMSBMMjYuMDAwMSw2LjAwMDEgWiIgaWQ9IkZpbGwtMSI+PC9wYXRoPgogICAgICAgICAgICA8L2c+CiAgICAgICAgICAgIDxwb2x5Z29uIGlkPSJGaWxsLTQiIHBvaW50cz0iMTIgNiAxNiA2IDE2IDQgMTIgNCI+PC9wb2x5Z29uPgogICAgICAgICAgICA8cG9seWdvbiBpZD0iRmlsbC02IiBwb2ludHM9IjEyIDEwIDE2IDEwIDE2IDggMTIgOCI+PC9wb2x5Z29uPgogICAgICAgICAgICA8cG9seWdvbiBpZD0iRmlsbC03IiBwb2ludHM9IjEyIDE0IDE2IDE0IDE2IDEyIDEyIDEyIj48L3BvbHlnb24+CiAgICAgICAgPC9nPgogICAgPC9nPgo8L3N2Zz4=;" parent="1" vertex="1">
          <mxGeometry x="460" y="-138.93" width="20" height="17.93" as="geometry" />
        </mxCell>
        <mxCell id="P6smGd08yftEUrH7O6GD-25" style="edgeStyle=orthogonalEdgeStyle;rounded=0;orthogonalLoop=1;jettySize=auto;html=1;exitX=0;exitY=0.5;exitDx=0;exitDy=0;entryX=1.009;entryY=0.22;entryDx=0;entryDy=0;entryPerimeter=0;fontFamily=IBM Plex Sans;fontSource=fonts%2FIBMPlexSans-Regular.woff;fontSize=14;startArrow=oval;startFill=1;strokeColor=#198038;" parent="1" edge="1">
          <mxGeometry relative="1" as="geometry" />
        </mxCell>
        <mxCell id="P6smGd08yftEUrH7O6GD-47" value="" style="rounded=0;whiteSpace=wrap;html=1;fontFamily=IBM Plex Sans;fontSource=fonts%2FIBMPlexSans-Regular.woff;fontSize=14;spacingBottom=-28;spacingTop=0;labelPosition=-100;verticalLabelPosition=top;align=center;verticalAlign=bottom;spacingLeft=9;spacing=0;expand=0;recursiveResize=0;spacingRight=0;container=0;collapsible=0;strokeColor=#1192E8;fillColor=none;" parent="1" vertex="1">
          <mxGeometry x="419" y="-187" width="321" height="367" as="geometry">
            <mxRectangle width="670" as="alternateBounds" />
          </mxGeometry>
        </mxCell>
        <mxCell id="P6smGd08yftEUrH7O6GD-464" value="" style="rounded=0;whiteSpace=wrap;html=1;fontFamily=IBM Plex Sans;fontSource=fonts%2FIBMPlexSans-Regular.woff;fontSize=14;spacingBottom=-28;spacingTop=0;labelPosition=-100;verticalLabelPosition=top;align=center;verticalAlign=bottom;spacingLeft=9;spacing=0;expand=0;recursiveResize=0;spacingRight=0;container=1;collapsible=0;strokeColor=#00882B;fillColor=#B9E0A5;" parent="1" vertex="1">
          <mxGeometry x="485" y="-27" width="190" height="152" as="geometry">
            <mxRectangle width="670" as="alternateBounds" />
          </mxGeometry>
        </mxCell>
        <mxCell id="P6smGd08yftEUrH7O6GD-465" value="" style="rounded=0;whiteSpace=wrap;html=1;strokeColor=#00882B;fillColor=#00882B;" parent="P6smGd08yftEUrH7O6GD-464" vertex="1">
          <mxGeometry width="7" height="37" as="geometry" />
        </mxCell>
        <mxCell id="P6smGd08yftEUrH7O6GD-466" value="10.10.10.0/24 : VSI" style="text;html=1;strokeColor=none;fillColor=none;align=left;verticalAlign=middle;whiteSpace=wrap;rounded=0;fontFamily=IBM Plex Sans;fontSource=fonts%2FIBMPlexSans-Regular.woff;fontSize=14;" parent="P6smGd08yftEUrH7O6GD-464" vertex="1">
          <mxGeometry x="51" y="8" width="163" height="20" as="geometry" />
        </mxCell>
        <mxCell id="P6smGd08yftEUrH7O6GD-467" value="" style="shape=image;aspect=fixed;image=data:image/svg+xml,PD94bWwgdmVyc2lvbj0iMS4wIiBlbmNvZGluZz0iVVRGLTgiPz4KPHN2ZyB3aWR0aD0iMjFweCIgaGVpZ2h0PSIyOXB4IiB2aWV3Qm94PSIwIDAgMjEgMjkiIHZlcnNpb249IjEuMSIgeG1sbnM9Imh0dHA6Ly93d3cudzMub3JnLzIwMDAvc3ZnIiB4bWxuczp4bGluaz0iaHR0cDovL3d3dy53My5vcmcvMTk5OS94bGluayI+CiAgICA8IS0tIEdlbmVyYXRvcjogU2tldGNoIDUzICg3MjUyMCkgLSBodHRwczovL3NrZXRjaGFwcC5jb20gLS0+CiAgICA8dGl0bGU+U3VibmV0IEJsYWNrPC90aXRsZT4KICAgIDxkZXNjPkNyZWF0ZWQgd2l0aCBTa2V0Y2guPC9kZXNjPgogICAgPGcgaWQ9IlBhZ2UtMSIgc3Ryb2tlPSJub25lIiBzdHJva2Utd2lkdGg9IjEiIGZpbGw9Im5vbmUiIGZpbGwtcnVsZT0iZXZlbm9kZCI+CiAgICAgICAgPGcgaWQ9IlN1Ym5ldC1CbGFjayIgdHJhbnNmb3JtPSJ0cmFuc2xhdGUoLTUuMzg4ODg5LCAtMS43NjI5ODYpIj4KICAgICAgICAgICAgPHBhdGggZD0iTTI0LDE0IEwyMiwxNCBMMjIsOCBDMjIsNC42ODYyOTE1IDE5LjMxMzcwODUsMiAxNiwyIEMxMi42ODYyOTE1LDIgMTAsNC42ODYyOTE1IDEwLDggTDEwLDE0IEw4LDE0IEM2Ljg5NTQzMDUsMTQgNiwxNC44OTU0MzA1IDYsMTYgTDYsMjggQzYsMjkuMTA0NTY5NSA2Ljg5NTQzMDUsMzAgOCwzMCBMMjQsMzAgQzI1LjEwNDU2OTUsMzAgMjYsMjkuMTA0NTY5NSAyNiwyOCBMMjYsMTYgQzI2LDE0Ljg5NTQzMDUgMjUuMTA0NTY5NSwxNCAyNCwxNCBaIE0xMiw4IEMxMiw1Ljc5MDg2MSAxMy43OTA4NjEsNCAxNiw0IEMxOC4yMDkxMzksNCAyMCw1Ljc5MDg2MSAyMCw4IEwyMCwxNCBMMTIsMTQgTDEyLDggWiBNMjQsMjggTDgsMjggTDgsMTYgTDI0LDE2IEwyNCwyOCBaIiBpZD0iU2hhcGUiIGZpbGw9IiMwMDAwMDAiIGZpbGwtcnVsZT0ibm9uemVybyI+PC9wYXRoPgogICAgICAgICAgICA8cmVjdCBpZD0iX1RyYW5zcGFyZW50X1JlY3RhbmdsZV8iIHg9IjAiIHk9IjAiIHdpZHRoPSIzMiIgaGVpZ2h0PSIzMiI+PC9yZWN0PgogICAgICAgIDwvZz4KICAgIDwvZz4KPC9zdmc+;imageBackground=none;" parent="P6smGd08yftEUrH7O6GD-464" vertex="1">
          <mxGeometry x="20" y="6" width="14" height="19.34" as="geometry" />
        </mxCell>
        <mxCell id="P6smGd08yftEUrH7O6GD-576" value="Virtual Server" style="shape=image;aspect=fixed;image=data:image/svg+xml,PHN2ZyBpZD0iTGF5ZXJfMSIgZGF0YS1uYW1lPSJMYXllciAxIiB4bWxucz0iaHR0cDovL3d3dy53My5vcmcvMjAwMC9zdmciIHZpZXdCb3g9IjAgMCA0OSA0OSI+PGRlZnM+PHN0eWxlPi5jbHMtMXtmaWxsOiMxOTgwMzg7fS5jbHMtMntmaWxsOiNmZmY7fS5jbHMtM3tmaWxsOm5vbmU7fTwvc3R5bGU+PC9kZWZzPjxyZWN0IGNsYXNzPSJjbHMtMSIgeD0iMC41IiB5PSIwLjUiIHdpZHRoPSI0OCIgaGVpZ2h0PSI0OCIvPjxwYXRoIGNsYXNzPSJjbHMtMiIgZD0iTTI5LjE5LDI3LjYyaC0uMzFWMjYuMzhoLjMxYTIuODEsMi44MSwwLDAsMCwuMjItNS42MmwtLjUxLDAtLjA2LS41MWE0LjM3LDQuMzcsMCwwLDAtOC42OCwwbC0uMDYuNTEtLjUxLDBhMi44MSwyLjgxLDAsMCwwLC4yMiw1LjYyaC4zMXYxLjI0aC0uMzFhNC4wNiw0LjA2LDAsMCwxLS44MS04LDUuNjIsNS42MiwwLDAsMSwxMSwwLDQuMDYsNC4wNiwwLDAsMS0uODEsOFoiLz48Y2lyY2xlIGNsYXNzPSJjbHMtMiIgY3g9IjIwLjEzIiBjeT0iMzEuMzgiIHI9IjAuNjMiLz48cGF0aCBjbGFzcz0iY2xzLTIiIGQ9Ik0zMC43NSwyOC44OEgyNS4xMlYyNC4zOUwyNi43NCwyNmwuODgtLjg5TDI0LjUsMjJsLTMuMTIsMy4xMi44OC44OSwxLjYyLTEuNjJ2NC40OUgxOC4yNUExLjI1LDEuMjUsMCwwLDAsMTcsMzAuMTJ2Mi41YTEuMjYsMS4yNiwwLDAsMCwxLjI1LDEuMjZoMTIuNUExLjI2LDEuMjYsMCwwLDAsMzIsMzIuNjJ2LTIuNUExLjI1LDEuMjUsMCwwLDAsMzAuNzUsMjguODhabTAsMy43NEgxOC4yNXYtMi41aDEyLjVaIi8+PHJlY3QgY2xhc3M9ImNscy0zIiB4PSIxNC41IiB5PSIxNC41IiB3aWR0aD0iMjAiIGhlaWdodD0iMjAiLz48L3N2Zz4=;fontSize=14;fontFamily=IBM Plex Sans;fontSource=fonts%2FIBMPlexSans-Regular.woff;labelPosition=center;verticalLabelPosition=bottom;align=center;verticalAlign=middle;spacingTop=-47;" parent="P6smGd08yftEUrH7O6GD-464" vertex="1">
          <mxGeometry x="55" y="37" width="80" height="80" as="geometry" />
        </mxCell>
        <mxCell id="P6smGd08yftEUrH7O6GD-582" value="" style="rounded=0;whiteSpace=wrap;html=1;fontFamily=IBM Plex Sans;fontSource=fonts%2FIBMPlexSans-Regular.woff;fontSize=14;spacingBottom=-28;spacingTop=0;labelPosition=-100;verticalLabelPosition=top;align=center;verticalAlign=bottom;spacingLeft=9;spacing=0;expand=0;recursiveResize=0;spacingRight=0;container=1;collapsible=0;strokeColor=#00882B;fillColor=#B9E0A5;" parent="P6smGd08yftEUrH7O6GD-464" vertex="1">
          <mxGeometry width="190" height="152" as="geometry">
            <mxRectangle width="670" as="alternateBounds" />
          </mxGeometry>
        </mxCell>
        <mxCell id="P6smGd08yftEUrH7O6GD-583" value="" style="rounded=0;whiteSpace=wrap;html=1;strokeColor=#00882B;fillColor=#00882B;" parent="P6smGd08yftEUrH7O6GD-582" vertex="1">
          <mxGeometry width="7" height="37" as="geometry" />
        </mxCell>
        <mxCell id="P6smGd08yftEUrH7O6GD-584" value="10.10.10.0/24 : VSI" style="text;html=1;strokeColor=none;fillColor=none;align=left;verticalAlign=middle;whiteSpace=wrap;rounded=0;fontFamily=IBM Plex Sans;fontSource=fonts%2FIBMPlexSans-Regular.woff;fontSize=14;" parent="P6smGd08yftEUrH7O6GD-582" vertex="1">
          <mxGeometry x="51" y="8" width="163" height="20" as="geometry" />
        </mxCell>
        <mxCell id="P6smGd08yftEUrH7O6GD-585" value="" style="shape=image;aspect=fixed;image=data:image/svg+xml,PD94bWwgdmVyc2lvbj0iMS4wIiBlbmNvZGluZz0iVVRGLTgiPz4KPHN2ZyB3aWR0aD0iMjFweCIgaGVpZ2h0PSIyOXB4IiB2aWV3Qm94PSIwIDAgMjEgMjkiIHZlcnNpb249IjEuMSIgeG1sbnM9Imh0dHA6Ly93d3cudzMub3JnLzIwMDAvc3ZnIiB4bWxuczp4bGluaz0iaHR0cDovL3d3dy53My5vcmcvMTk5OS94bGluayI+CiAgICA8IS0tIEdlbmVyYXRvcjogU2tldGNoIDUzICg3MjUyMCkgLSBodHRwczovL3NrZXRjaGFwcC5jb20gLS0+CiAgICA8dGl0bGU+U3VibmV0IEJsYWNrPC90aXRsZT4KICAgIDxkZXNjPkNyZWF0ZWQgd2l0aCBTa2V0Y2guPC9kZXNjPgogICAgPGcgaWQ9IlBhZ2UtMSIgc3Ryb2tlPSJub25lIiBzdHJva2Utd2lkdGg9IjEiIGZpbGw9Im5vbmUiIGZpbGwtcnVsZT0iZXZlbm9kZCI+CiAgICAgICAgPGcgaWQ9IlN1Ym5ldC1CbGFjayIgdHJhbnNmb3JtPSJ0cmFuc2xhdGUoLTUuMzg4ODg5LCAtMS43NjI5ODYpIj4KICAgICAgICAgICAgPHBhdGggZD0iTTI0LDE0IEwyMiwxNCBMMjIsOCBDMjIsNC42ODYyOTE1IDE5LjMxMzcwODUsMiAxNiwyIEMxMi42ODYyOTE1LDIgMTAsNC42ODYyOTE1IDEwLDggTDEwLDE0IEw4LDE0IEM2Ljg5NTQzMDUsMTQgNiwxNC44OTU0MzA1IDYsMTYgTDYsMjggQzYsMjkuMTA0NTY5NSA2Ljg5NTQzMDUsMzAgOCwzMCBMMjQsMzAgQzI1LjEwNDU2OTUsMzAgMjYsMjkuMTA0NTY5NSAyNiwyOCBMMjYsMTYgQzI2LDE0Ljg5NTQzMDUgMjUuMTA0NTY5NSwxNCAyNCwxNCBaIE0xMiw4IEMxMiw1Ljc5MDg2MSAxMy43OTA4NjEsNCAxNiw0IEMxOC4yMDkxMzksNCAyMCw1Ljc5MDg2MSAyMCw4IEwyMCwxNCBMMTIsMTQgTDEyLDggWiBNMjQsMjggTDgsMjggTDgsMTYgTDI0LDE2IEwyNCwyOCBaIiBpZD0iU2hhcGUiIGZpbGw9IiMwMDAwMDAiIGZpbGwtcnVsZT0ibm9uemVybyI+PC9wYXRoPgogICAgICAgICAgICA8cmVjdCBpZD0iX1RyYW5zcGFyZW50X1JlY3RhbmdsZV8iIHg9IjAiIHk9IjAiIHdpZHRoPSIzMiIgaGVpZ2h0PSIzMiI+PC9yZWN0PgogICAgICAgIDwvZz4KICAgIDwvZz4KPC9zdmc+;imageBackground=none;" parent="P6smGd08yftEUrH7O6GD-582" vertex="1">
          <mxGeometry x="20" y="6" width="14" height="19.34" as="geometry" />
        </mxCell>
        <mxCell id="P6smGd08yftEUrH7O6GD-586" value="Virtual Server" style="shape=image;aspect=fixed;image=data:image/svg+xml,PHN2ZyBpZD0iTGF5ZXJfMSIgZGF0YS1uYW1lPSJMYXllciAxIiB4bWxucz0iaHR0cDovL3d3dy53My5vcmcvMjAwMC9zdmciIHZpZXdCb3g9IjAgMCA0OSA0OSI+PGRlZnM+PHN0eWxlPi5jbHMtMXtmaWxsOiMxOTgwMzg7fS5jbHMtMntmaWxsOiNmZmY7fS5jbHMtM3tmaWxsOm5vbmU7fTwvc3R5bGU+PC9kZWZzPjxyZWN0IGNsYXNzPSJjbHMtMSIgeD0iMC41IiB5PSIwLjUiIHdpZHRoPSI0OCIgaGVpZ2h0PSI0OCIvPjxwYXRoIGNsYXNzPSJjbHMtMiIgZD0iTTI5LjE5LDI3LjYyaC0uMzFWMjYuMzhoLjMxYTIuODEsMi44MSwwLDAsMCwuMjItNS42MmwtLjUxLDAtLjA2LS41MWE0LjM3LDQuMzcsMCwwLDAtOC42OCwwbC0uMDYuNTEtLjUxLDBhMi44MSwyLjgxLDAsMCwwLC4yMiw1LjYyaC4zMXYxLjI0aC0uMzFhNC4wNiw0LjA2LDAsMCwxLS44MS04LDUuNjIsNS42MiwwLDAsMSwxMSwwLDQuMDYsNC4wNiwwLDAsMS0uODEsOFoiLz48Y2lyY2xlIGNsYXNzPSJjbHMtMiIgY3g9IjIwLjEzIiBjeT0iMzEuMzgiIHI9IjAuNjMiLz48cGF0aCBjbGFzcz0iY2xzLTIiIGQ9Ik0zMC43NSwyOC44OEgyNS4xMlYyNC4zOUwyNi43NCwyNmwuODgtLjg5TDI0LjUsMjJsLTMuMTIsMy4xMi44OC44OSwxLjYyLTEuNjJ2NC40OUgxOC4yNUExLjI1LDEuMjUsMCwwLDAsMTcsMzAuMTJ2Mi41YTEuMjYsMS4yNiwwLDAsMCwxLjI1LDEuMjZoMTIuNUExLjI2LDEuMjYsMCwwLDAsMzIsMzIuNjJ2LTIuNUExLjI1LDEuMjUsMCwwLDAsMzAuNzUsMjguODhabTAsMy43NEgxOC4yNXYtMi41aDEyLjVaIi8+PHJlY3QgY2xhc3M9ImNscy0zIiB4PSIxNC41IiB5PSIxNC41IiB3aWR0aD0iMjAiIGhlaWdodD0iMjAiLz48L3N2Zz4=;fontSize=14;fontFamily=IBM Plex Sans;fontSource=fonts%2FIBMPlexSans-Regular.woff;labelPosition=center;verticalLabelPosition=bottom;align=center;verticalAlign=middle;spacingTop=-47;" parent="P6smGd08yftEUrH7O6GD-582" vertex="1">
          <mxGeometry x="55" y="37" width="80" height="80" as="geometry" />
        </mxCell>
        <mxCell id="P6smGd08yftEUrH7O6GD-48" value="" style="rounded=0;whiteSpace=wrap;html=1;strokeColor=none;fillColor=#1192E8;" parent="1" vertex="1">
          <mxGeometry x="419" y="-187" width="7" height="37" as="geometry" />
        </mxCell>
        <mxCell id="P6smGd08yftEUrH7O6GD-49" value="Management VPC" style="text;html=1;strokeColor=none;fillColor=none;align=left;verticalAlign=middle;whiteSpace=wrap;rounded=0;fontFamily=IBM Plex Sans;fontSource=fonts%2FIBMPlexSans-Regular.woff;fontSize=14;" parent="1" vertex="1">
          <mxGeometry x="470" y="-179" width="163" height="20" as="geometry" />
        </mxCell>
        <mxCell id="P6smGd08yftEUrH7O6GD-50" value="" style="shape=image;aspect=fixed;image=data:image/svg+xml,PD94bWwgdmVyc2lvbj0iMS4wIiBlbmNvZGluZz0iVVRGLTgiPz4KPHN2ZyB3aWR0aD0iMjlweCIgaGVpZ2h0PSIyOHB4IiB2aWV3Qm94PSIwIDAgMjkgMjgiIHZlcnNpb249IjEuMSIgeG1sbnM9Imh0dHA6Ly93d3cudzMub3JnLzIwMDAvc3ZnIiB4bWxuczp4bGluaz0iaHR0cDovL3d3dy53My5vcmcvMTk5OS94bGluayI+CiAgICA8IS0tIEdlbmVyYXRvcjogU2tldGNoIDUzICg3MjUyMCkgLSBodHRwczovL3NrZXRjaGFwcC5jb20gLS0+CiAgICA8dGl0bGU+SUJNIFZQQyBCbGFjazwvdGl0bGU+CiAgICA8ZGVzYz5DcmVhdGVkIHdpdGggU2tldGNoLjwvZGVzYz4KICAgIDxnIGlkPSJQYWdlLTEiIHN0cm9rZT0ibm9uZSIgc3Ryb2tlLXdpZHRoPSIxIiBmaWxsPSJub25lIiBmaWxsLXJ1bGU9ImV2ZW5vZGQiPgogICAgICAgIDxnIGlkPSJJQk0tVlBDLUJsYWNrIiB0cmFuc2Zvcm09InRyYW5zbGF0ZSgwLjc1MDAwMCwgLTEuMDAwMDAwKSIgZmlsbD0iIzAwMDAwMCI+CiAgICAgICAgICAgIDxwYXRoIGQ9Ik0wLjAwMDksMS4wMDAyIEwwLjAwMDksOS4wMDAyIEw2LjU4NjksOS4wMDAyIEwyMC4wMDA5LDIyLjQxNDIgTDIwLjAwMDksMjkuMDAwMiBMMjguMDAwOSwyOS4wMDAyIEwyOC4wMDA5LDIxLjAwMDIgTDIxLjQxNTksMjEuMDAwMiBMOC4wMDA5LDcuNTg1MiBMOC4wMDA5LDEuMDAwMiBMMC4wMDA5LDEuMDAwMiBaIE0yLjAwMDksNy4wMDAyIEw2LjAwMDksNy4wMDAyIEw2LjAwMDksMy4wMDAyIEwyLjAwMDksMy4wMDAyIEwyLjAwMDksNy4wMDAyIFogTTIyLjAwMDksMjcuMDAxMiBMMjYuMDAxOSwyNy4wMDEyIEwyNi4wMDE5LDIzLjAwMDIgTDIyLjAwMDksMjMuMDAwMiBMMjIuMDAwOSwyNy4wMDEyIFoiIGlkPSJGaWxsLTEiPjwvcGF0aD4KICAgICAgICAgICAgPGcgaWQ9Ikdyb3VwLTgiIHRyYW5zZm9ybT0idHJhbnNsYXRlKDAuMDAwMDAwLCAwLjAwMTkwMCkiPgogICAgICAgICAgICAgICAgPGcgaWQ9Ikdyb3VwLTQiIHRyYW5zZm9ybT0idHJhbnNsYXRlKDExLjAwMDAwMCwgMC4wMDAwMDApIj4KICAgICAgICAgICAgICAgICAgICA8cGF0aCBkPSJNMTIuNjQ2Nyw2LjgxNzkgQzExLjU0MjcsNi44MTc5IDEwLjY0NjcsNS45MjI5IDEwLjY0NjcsNC44MTc5IEMxMC42NDY3LDMuNzEzOSAxMS41NDI3LDIuODE3OSAxMi42NDY3LDIuODE3OSBDMTMuNzUwNywyLjgxNzkgMTQuNjQ2NywzLjcxMzkgMTQuNjQ2Nyw0LjgxNzkgQzE0LjY0NTcsNS45MjE5IDEzLjc1MDcsNi44MTY5IDEyLjY0NjcsNi44MTc5IE0xNi43MzM3LDMuNTE4OSBDMTYuMzU2NywyLjQ5ODkgMTUuNTMxNywxLjY2NzkgMTQuNTE1NywxLjI4MDkgQzEyLjEyNzcsMC4zNzA5IDkuNzE3NywxLjc1NTkgOS4xNDI3LDMuOTk3OSBMMC4wMDA3LDMuOTk3OSBMMC4wMDA3LDUuOTk3OSBMOS4xNDI3LDUuOTk3OSBDOS41MDc3LDcuMzk3OSAxMC42MDE3LDguNDkwOSAxMi4wMDA3LDguODU1OSBMMTIuMDAwNywxNy45OTc5IEwxNC4wMDA3LDE3Ljk5NzkgTDE0LjAwMDcsOC44NTU5IEMxNi4yMjk3LDguMjgxOSAxNy42MTE3LDUuODk2OSAxNi43MzM3LDMuNTE4OSIgaWQ9IkZpbGwtMiI+PC9wYXRoPgogICAgICAgICAgICAgICAgPC9nPgogICAgICAgICAgICAgICAgPGcgaWQ9Ikdyb3VwLTciIHRyYW5zZm9ybT0idHJhbnNsYXRlKDAuMDAwMDAwLCAxMS4wMDAwMDApIj4KICAgICAgICAgICAgICAgICAgICA8cGF0aCBkPSJNMy42NDY3LDE1LjgxNzkgQzIuNTQyNywxNS44MTc5IDEuNjQ2NywxNC45MjI5IDEuNjQ2NywxMy44MTc5IEMxLjY0NjcsMTIuNzEzOSAyLjU0MjcsMTEuODE3OSAzLjY0NjcsMTEuODE3OSBDNC43NTA3LDExLjgxNzkgNS42NDY3LDEyLjcxMzkgNS42NDY3LDEzLjgxNzkgQzUuNjQ1NywxNC45MjE5IDQuNzUwNywxNS44MTY5IDMuNjQ2NywxNS44MTc5IEwzLjY0NjcsMTUuODE3OSBaIE0xNy4wMDA3LDEyLjk5NzkgTDcuODU4NywxMi45OTc5IEM3LjQ5MzcsMTEuNTk3OSA2LjQwMDcsMTAuNTA0OSA1LjAwMDcsMTAuMTM5OSBMNS4wMDA3LDAuOTk3OSBMMy4wMDA3LDAuOTk3OSBMMy4wMDA3LDEwLjEzOTkgQzAuNDg3NywxMC43ODQ5IC0wLjg1MTMsMTMuNjgzOSAwLjU5NDcsMTYuMTE5OSBDMS4xNTA3LDE3LjA1NTkgMi4xMTE3LDE3LjcyODkgMy4xODI3LDE3LjkyNjkgQzUuNDAyNywxOC4zMzc5IDcuMzUzNywxNi45Njk5IDcuODU4NywxNC45OTc5IEwxNy4wMDA3LDE0Ljk5NzkgTDE3LjAwMDcsMTIuOTk3OSBaIiBpZD0iRmlsbC01Ij48L3BhdGg+CiAgICAgICAgICAgICAgICA8L2c+CiAgICAgICAgICAgIDwvZz4KICAgICAgICA8L2c+CiAgICA8L2c+Cjwvc3ZnPg==;" parent="1" vertex="1">
          <mxGeometry x="439" y="-180.1500000000001" width="20" height="19.31" as="geometry" />
        </mxCell>
        <mxCell id="P6smGd08yftEUrH7O6GD-70" value="" style="shape=image;aspect=fixed;image=data:image/svg+xml,PD94bWwgdmVyc2lvbj0iMS4wIiBlbmNvZGluZz0iVVRGLTgiPz4KPHN2ZyB3aWR0aD0iMjlweCIgaGVpZ2h0PSIyOHB4IiB2aWV3Qm94PSIwIDAgMjkgMjgiIHZlcnNpb249IjEuMSIgeG1sbnM9Imh0dHA6Ly93d3cudzMub3JnLzIwMDAvc3ZnIiB4bWxuczp4bGluaz0iaHR0cDovL3d3dy53My5vcmcvMTk5OS94bGluayI+CiAgICA8IS0tIEdlbmVyYXRvcjogU2tldGNoIDUzICg3MjUyMCkgLSBodHRwczovL3NrZXRjaGFwcC5jb20gLS0+CiAgICA8dGl0bGU+UmVzb3VyY2UgR3JvdXAgQmxhY2s8L3RpdGxlPgogICAgPGRlc2M+Q3JlYXRlZCB3aXRoIFNrZXRjaC48L2Rlc2M+CiAgICA8ZGVmcz4KICAgICAgICA8cG9seWdvbiBpZD0icGF0aC0xIiBwb2ludHM9IjAgMCAyOCAwIDI4IDI4IDAgMjgiPjwvcG9seWdvbj4KICAgIDwvZGVmcz4KICAgIDxnIGlkPSJQYWdlLTEiIHN0cm9rZT0ibm9uZSIgc3Ryb2tlLXdpZHRoPSIxIiBmaWxsPSJub25lIiBmaWxsLXJ1bGU9ImV2ZW5vZGQiPgogICAgICAgIDxnIGlkPSJSZXNvdXJjZS1Hcm91cC1CbGFjayIgdHJhbnNmb3JtPSJ0cmFuc2xhdGUoMC4zNzUwMDAsIDAuMDAwMDAwKSI+CiAgICAgICAgICAgIDxtYXNrIGlkPSJtYXNrLTIiIGZpbGw9IndoaXRlIj4KICAgICAgICAgICAgICAgIDx1c2UgeGxpbms6aHJlZj0iI3BhdGgtMSI+PC91c2U+CiAgICAgICAgICAgIDwvbWFzaz4KICAgICAgICAgICAgPGcgaWQ9IkNsaXAtMiI+PC9nPgogICAgICAgICAgICA8cGF0aCBkPSJNOCwyMCBMMjAsMjAgTDIwLDggTDgsOCBMOCwyMCBaIE0yMCwyMiBMOCwyMiBDNi44OTYsMjEuOTk5IDYuMDAxLDIxLjEwNCA2LDIwIEw2LDggQzYuMDAxLDYuODk2IDYuODk2LDYuMDAxIDgsNiBMMjAsNiBDMjEuMTA0LDYuMDAxIDIxLjk5OSw2Ljg5NiAyMiw4IEwyMiwyMCBDMjEuOTk5LDIxLjEwNCAyMS4xMDQsMjEuOTk5IDIwLDIyIEwyMCwyMiBaIiBpZD0iRmlsbC0xIiBmaWxsPSIjMDAwMDAwIiBtYXNrPSJ1cmwoI21hc2stMikiPjwvcGF0aD4KICAgICAgICAgICAgPHBhdGggZD0iTTUuOTk5OCwyOCBMMS45OTk4LDI4IEMwLjg5NTgsMjcuOTk5IDAuMDAwOCwyNy4xMDQgLTAuMDAwMiwyNiBMLTAuMDAwMiwyIEMwLjAwMDgsMC44OTYgMC44OTU4LDAuMDAxIDEuOTk5OCwwIEw1Ljk5OTgsMCBMNS45OTk4LDIgTDEuOTk5OCwyIEwxLjk5OTgsMjYgTDUuOTk5OCwyNiBMNS45OTk4LDI4IFoiIGlkPSJGaWxsLTMiIGZpbGw9IiMwMDAwMDAiIG1hc2s9InVybCgjbWFzay0yKSI+PC9wYXRoPgogICAgICAgICAgICA8cGF0aCBkPSJNMjYuMDAwMywyOCBMMjIuMDAwMywyOCBMMjIuMDAwMywyNiBMMjYuMDAwMywyNiBMMjYuMDAwMywyIEwyMi4wMDAzLDIgTDIyLjAwMDMsMCBMMjYuMDAwMywwIEMyNy4xMDQzLDAuMDAxIDI3Ljk5OTMsMC44OTYgMjguMDAwMywyIEwyOC4wMDAzLDI2IEMyNy45OTkzLDI3LjEwNCAyNy4xMDQzLDI3Ljk5OSAyNi4wMDAzLDI4IiBpZD0iRmlsbC00IiBmaWxsPSIjMDAwMDAwIiBtYXNrPSJ1cmwoI21hc2stMikiPjwvcGF0aD4KICAgICAgICA8L2c+CiAgICA8L2c+Cjwvc3ZnPg==;" parent="1" vertex="1">
          <mxGeometry x="420" y="-221.15999999999994" width="20" height="19.31" as="geometry" />
        </mxCell>
        <mxCell id="P6smGd08yftEUrH7O6GD-587" value="" style="group" parent="1" vertex="1" connectable="0">
          <mxGeometry x="400" y="-230" width="980" height="800" as="geometry" />
        </mxCell>
        <mxCell id="P6smGd08yftEUrH7O6GD-67" value="" style="rounded=0;whiteSpace=wrap;html=1;fontFamily=IBM Plex Sans;fontSource=fonts%2FIBMPlexSans-Regular.woff;fontSize=14;fillColor=none;spacingBottom=-28;spacingTop=0;labelPosition=-100;verticalLabelPosition=top;align=center;verticalAlign=bottom;spacingLeft=9;spacing=0;expand=0;recursiveResize=0;spacingRight=0;container=0;collapsible=0;strokeColor=#FA4D56;strokeWidth=1;" parent="P6smGd08yftEUrH7O6GD-587" vertex="1">
          <mxGeometry width="360" height="430" as="geometry">
            <mxRectangle width="670" as="alternateBounds" />
          </mxGeometry>
        </mxCell>
        <mxCell id="P6smGd08yftEUrH7O6GD-588" value="" style="group" parent="P6smGd08yftEUrH7O6GD-587" vertex="1" connectable="0">
          <mxGeometry width="330.3370786516854" height="36.86176836861768" as="geometry" />
        </mxCell>
        <mxCell id="P6smGd08yftEUrH7O6GD-68" value="" style="rounded=0;whiteSpace=wrap;html=1;strokeColor=none;fillColor=#FA4D56;" parent="P6smGd08yftEUrH7O6GD-588" vertex="1">
          <mxGeometry width="7.007150153217569" height="36.86176836861768" as="geometry" />
        </mxCell>
        <mxCell id="P6smGd08yftEUrH7O6GD-69" value="Management Resource Group" style="text;html=1;strokeColor=none;fillColor=none;align=left;verticalAlign=middle;whiteSpace=wrap;rounded=0;fontFamily=IBM Plex Sans;fontSource=fonts%2FIBMPlexSans-Regular.woff;fontSize=14;" parent="P6smGd08yftEUrH7O6GD-588" vertex="1">
          <mxGeometry x="50.38140960163432" y="7.970112079701121" width="279.9556690500511" height="19.925280199252803" as="geometry" />
        </mxCell>
        <mxCell id="IAwdmGmUgT2g3J3roz0W-1" value="" style="group" parent="P6smGd08yftEUrH7O6GD-587" vertex="1" connectable="0">
          <mxGeometry x="390" width="360" height="430" as="geometry" />
        </mxCell>
        <mxCell id="P6smGd08yftEUrH7O6GD-497" value="" style="rounded=0;whiteSpace=wrap;html=1;fontFamily=IBM Plex Sans;fontSource=fonts%2FIBMPlexSans-Regular.woff;fontSize=14;spacingBottom=-28;spacingTop=0;labelPosition=-100;verticalLabelPosition=top;align=center;verticalAlign=bottom;spacingLeft=9;spacing=0;expand=0;recursiveResize=0;spacingRight=0;container=0;collapsible=0;strokeColor=#878d96;fillColor=#E6E6E6;labelBackgroundColor=#9999FF;labelBorderColor=none;" parent="IAwdmGmUgT2g3J3roz0W-1" vertex="1">
          <mxGeometry x="40" y="83" width="280" height="307" as="geometry">
            <mxRectangle width="670" as="alternateBounds" />
          </mxGeometry>
        </mxCell>
        <mxCell id="P6smGd08yftEUrH7O6GD-552" value="" style="rounded=0;whiteSpace=wrap;html=1;fontFamily=IBM Plex Sans;fontSource=fonts%2FIBMPlexSans-Regular.woff;fontSize=14;fillColor=none;spacingBottom=-28;spacingTop=0;labelPosition=-100;verticalLabelPosition=top;align=center;verticalAlign=bottom;spacingLeft=9;spacing=0;expand=0;recursiveResize=0;spacingRight=0;container=1;collapsible=0;strokeColor=#FA4D56;strokeWidth=1;" parent="IAwdmGmUgT2g3J3roz0W-1" vertex="1">
          <mxGeometry x="50" y="123" width="260" height="257" as="geometry">
            <mxRectangle width="670" as="alternateBounds" />
          </mxGeometry>
        </mxCell>
        <mxCell id="P6smGd08yftEUrH7O6GD-553" value="" style="rounded=0;whiteSpace=wrap;html=1;strokeColor=none;fillColor=#FA4D56;fontFamily=IBM Plex Sans;fontSource=fonts%2FIBMPlexSans-Regular.woff;fontSize=14;" parent="P6smGd08yftEUrH7O6GD-552" vertex="1">
          <mxGeometry width="7" height="37" as="geometry" />
        </mxCell>
        <mxCell id="P6smGd08yftEUrH7O6GD-554" value="Workload ACL" style="text;html=1;strokeColor=none;fillColor=none;align=left;verticalAlign=middle;whiteSpace=wrap;rounded=0;fontFamily=IBM Plex Sans;fontSource=fonts%2FIBMPlexSans-Regular.woff;fontSize=14;" parent="P6smGd08yftEUrH7O6GD-552" vertex="1">
          <mxGeometry x="50.33" y="8" width="170" height="20" as="geometry" />
        </mxCell>
        <mxCell id="P6smGd08yftEUrH7O6GD-555" value="" style="shape=image;aspect=fixed;image=data:image/svg+xml,PHN2ZyBpZD0iaWNvbiIgeG1sbnM9Imh0dHA6Ly93d3cudzMub3JnLzIwMDAvc3ZnIiB2aWV3Qm94PSIwIDAgMzIgMzIiPjxkZWZzPjxzdHlsZT4uY2xzLTF7ZmlsbDpub25lO308L3N0eWxlPjwvZGVmcz48dGl0bGU+bG9ja2VkPC90aXRsZT48cGF0aCBkPSJNMjQsMTRIMjJWOEE2LDYsMCwwLDAsMTAsOHY2SDhhMiwyLDAsMCwwLTIsMlYyOGEyLDIsMCwwLDAsMiwySDI0YTIsMiwwLDAsMCwyLTJWMTZBMiwyLDAsMCwwLDI0LDE0Wk0xMiw4YTQsNCwwLDAsMSw4LDB2NkgxMlpNMjQsMjhIOFYxNkgyNFoiLz48cmVjdCBpZD0iX1RyYW5zcGFyZW50X1JlY3RhbmdsZV8iIGRhdGEtbmFtZT0iJmx0O1RyYW5zcGFyZW50IFJlY3RhbmdsZSZndDsiIGNsYXNzPSJjbHMtMSIgd2lkdGg9IjMyIiBoZWlnaHQ9IjMyIi8+PC9zdmc+;" parent="P6smGd08yftEUrH7O6GD-552" vertex="1">
          <mxGeometry x="20" y="6.5" width="23" height="23" as="geometry" />
        </mxCell>
        <mxCell id="P6smGd08yftEUrH7O6GD-556" value="" style="rounded=0;whiteSpace=wrap;html=1;fontFamily=IBM Plex Sans;fontSource=fonts%2FIBMPlexSans-Regular.woff;fontSize=14;fillColor=none;spacingBottom=-28;spacingTop=0;labelPosition=-100;verticalLabelPosition=top;align=center;verticalAlign=bottom;spacingLeft=9;spacing=0;expand=0;recursiveResize=0;spacingRight=0;container=1;collapsible=0;strokeColor=#1192E8;strokeWidth=1;" parent="P6smGd08yftEUrH7O6GD-552" vertex="1">
          <mxGeometry x="10" y="37" width="240" height="213" as="geometry">
            <mxRectangle width="670" as="alternateBounds" />
          </mxGeometry>
        </mxCell>
        <mxCell id="P6smGd08yftEUrH7O6GD-557" value="" style="rounded=0;whiteSpace=wrap;html=1;strokeColor=#1192E8;fillColor=#1192E8;" parent="P6smGd08yftEUrH7O6GD-556" vertex="1">
          <mxGeometry width="7" height="37" as="geometry" />
        </mxCell>
        <mxCell id="P6smGd08yftEUrH7O6GD-558" value="Security Group" style="text;html=1;strokeColor=none;fillColor=none;align=left;verticalAlign=middle;whiteSpace=wrap;rounded=0;fontFamily=IBM Plex Sans;fontSource=fonts%2FIBMPlexSans-Regular.woff;fontSize=14;" parent="P6smGd08yftEUrH7O6GD-556" vertex="1">
          <mxGeometry x="50.33" y="8" width="170" height="20" as="geometry" />
        </mxCell>
        <mxCell id="P6smGd08yftEUrH7O6GD-559" value="" style="shape=image;aspect=fixed;image=data:image/svg+xml,PD94bWwgdmVyc2lvbj0iMS4wIiBlbmNvZGluZz0iVVRGLTgiPz4KPHN2ZyB3aWR0aD0iMjhweCIgaGVpZ2h0PSIyOHB4IiB2aWV3Qm94PSIwIDAgMjggMjgiIHZlcnNpb249IjEuMSIgeG1sbnM9Imh0dHA6Ly93d3cudzMub3JnLzIwMDAvc3ZnIiB4bWxuczp4bGluaz0iaHR0cDovL3d3dy53My5vcmcvMTk5OS94bGluayI+CiAgICA8IS0tIEdlbmVyYXRvcjogU2tldGNoIDUzICg3MjUyMCkgLSBodHRwczovL3NrZXRjaGFwcC5jb20gLS0+CiAgICA8dGl0bGU+U2VjdXJpdHkgR3JvdXAgQmxhY2s8L3RpdGxlPgogICAgPGRlc2M+Q3JlYXRlZCB3aXRoIFNrZXRjaC48L2Rlc2M+CiAgICA8ZGVmcz4KICAgICAgICA8cG9seWdvbiBpZD0icGF0aC0xIiBwb2ludHM9IjAgMC4wMDA0IDI0IDAuMDAwNCAyNCAyOCAwIDI4Ij48L3BvbHlnb24+CiAgICA8L2RlZnM+CiAgICA8ZyBpZD0iUGFnZS0xIiBzdHJva2U9Im5vbmUiIHN0cm9rZS13aWR0aD0iMSIgZmlsbD0ibm9uZSIgZmlsbC1ydWxlPSJldmVub2RkIj4KICAgICAgICA8ZyBpZD0iU2VjdXJpdHktR3JvdXAtQmxhY2siPgogICAgICAgICAgICA8cGF0aCBkPSJNOSwxOSBMNywxOSBMNywxNyBDNy4wMDIsMTUuMzQ0IDguMzQ0LDE0LjAwMiAxMCwxNCBMMTYsMTQgTDE2LDE2IEwxMCwxNiBDOS40NDgsMTYgOS4wMDEsMTYuNDQ4IDksMTcgTDksMTkgWiIgaWQ9IkZpbGwtMSIgZmlsbD0iIzAwMDAwMCI+PC9wYXRoPgogICAgICAgICAgICA8cGF0aCBkPSJNMTMsNyBDMTEuODk2LDcgMTEsNy44OTYgMTEsOSBDMTEsMTAuMTA0IDExLjg5NiwxMSAxMywxMSBDMTQuMTA0LDExIDE1LDEwLjEwNCAxNSw5IEMxNC45OTksNy44OTYgMTQuMTA0LDcuMDAxIDEzLDcgTTEzLDEzIEMxMC43OTEsMTMgOSwxMS4yMDkgOSw5IEM5LDYuNzkxIDEwLjc5MSw1IDEzLDUgQzE1LjIwOSw1IDE3LDYuNzkxIDE3LDkgQzE2Ljk5NywxMS4yMDggMTUuMjA4LDEyLjk5OCAxMywxMyIgaWQ9IkZpbGwtMyIgZmlsbD0iIzAwMDAwMCI+PC9wYXRoPgogICAgICAgICAgICA8cGF0aCBkPSJNMjIsMTQgQzIwLjg5NiwxNCAyMCwxNC44OTYgMjAsMTYgQzIwLDE3LjEwNCAyMC44OTYsMTggMjIsMTggQzIzLjEwNCwxOCAyNCwxNy4xMDQgMjQsMTYgQzIzLjk5OSwxNC44OTYgMjMuMTA0LDE0LjAwMSAyMiwxNCBNMjIsMjAgQzE5Ljc5MSwyMCAxOCwxOC4yMDkgMTgsMTYgQzE4LDEzLjc5MSAxOS43OTEsMTIgMjIsMTIgQzI0LjIwOSwxMiAyNiwxMy43OTEgMjYsMTYgQzI1Ljk5NywxOC4yMDggMjQuMjA4LDE5Ljk5OCAyMiwyMCIgaWQ9IkZpbGwtNSIgZmlsbD0iIzAwMDAwMCI+PC9wYXRoPgogICAgICAgICAgICA8cGF0aCBkPSJNMjgsMjYgTDI2LDI2IEwyNiwyNCBDMjUuOTk5LDIzLjQ0OCAyNS41NTIsMjMgMjUsMjMgTDE5LDIzIEMxOC40NDgsMjMgMTguMDAxLDIzLjQ0OCAxOCwyNCBMMTgsMjYgTDE2LDI2IEwxNiwyNCBDMTYuMDAyLDIyLjM0NCAxNy4zNDQsMjEuMDAyIDE5LDIxIEwyNSwyMSBDMjYuNjU2LDIxLjAwMiAyNy45OTgsMjIuMzQ0IDI4LDI0IEwyOCwyNiBaIiBpZD0iRmlsbC03IiBmaWxsPSIjMDAwMDAwIj48L3BhdGg+CiAgICAgICAgICAgIDxnIGlkPSJHcm91cC0xMSI+CiAgICAgICAgICAgICAgICA8bWFzayBpZD0ibWFzay0yIiBmaWxsPSJ3aGl0ZSI+CiAgICAgICAgICAgICAgICAgICAgPHVzZSB4bGluazpocmVmPSIjcGF0aC0xIj48L3VzZT4KICAgICAgICAgICAgICAgIDwvbWFzaz4KICAgICAgICAgICAgICAgIDxnIGlkPSJDbGlwLTEwIj48L2c+CiAgICAgICAgICAgICAgICA8cGF0aCBkPSJNMTIsMjUuNzMzNCBMNi43NjYsMjIuOTQyNCBDMy44MywyMS4zODA0IDEuOTk2LDE4LjMyNTQgMiwxNS4wMDA0IEwyLDIuMDAwNCBMMjIsMi4wMDA0IEwyMiw4LjAwMDQgTDI0LDguMDAwNCBMMjQsMi4wMDA0IEMyMy45OTksMC44OTY0IDIzLjEwNCwwLjAwMTQgMjIsMC4wMDA0IEwyLDAuMDAwNCBDMC44OTYsMC4wMDE0IDAuMDAxLDAuODk2NCAwLDIuMDAwNCBMMCwxNS4wMDA0IEMtMC4wMDUsMTkuMDY0NCAyLjIzNiwyMi43OTg0IDUuODI0LDI0LjcwNzQgTDEyLDI4LjAwMDQgTDEyLDI1LjczMzQgWiIgaWQ9IkZpbGwtOSIgZmlsbD0iIzAwMDAwMCIgbWFzaz0idXJsKCNtYXNrLTIpIj48L3BhdGg+CiAgICAgICAgICAgIDwvZz4KICAgICAgICA8L2c+CiAgICA8L2c+Cjwvc3ZnPg==;" parent="P6smGd08yftEUrH7O6GD-556" vertex="1">
          <mxGeometry x="18" y="7" width="20" height="20" as="geometry" />
        </mxCell>
        <mxCell id="P6smGd08yftEUrH7O6GD-560" value="Virtual Server" style="shape=image;aspect=fixed;image=data:image/svg+xml,PHN2ZyBpZD0iTGF5ZXJfMSIgZGF0YS1uYW1lPSJMYXllciAxIiB4bWxucz0iaHR0cDovL3d3dy53My5vcmcvMjAwMC9zdmciIHZpZXdCb3g9IjAgMCA0OSA0OSI+PGRlZnM+PHN0eWxlPi5jbHMtMXtmaWxsOiMxOTgwMzg7fS5jbHMtMntmaWxsOiNmZmY7fS5jbHMtM3tmaWxsOm5vbmU7fTwvc3R5bGU+PC9kZWZzPjxyZWN0IGNsYXNzPSJjbHMtMSIgeD0iMC41IiB5PSIwLjUiIHdpZHRoPSI0OCIgaGVpZ2h0PSI0OCIvPjxwYXRoIGNsYXNzPSJjbHMtMiIgZD0iTTI5LjE5LDI3LjYyaC0uMzFWMjYuMzhoLjMxYTIuODEsMi44MSwwLDAsMCwuMjItNS42MmwtLjUxLDAtLjA2LS41MWE0LjM3LDQuMzcsMCwwLDAtOC42OCwwbC0uMDYuNTEtLjUxLDBhMi44MSwyLjgxLDAsMCwwLC4yMiw1LjYyaC4zMXYxLjI0aC0uMzFhNC4wNiw0LjA2LDAsMCwxLS44MS04LDUuNjIsNS42MiwwLDAsMSwxMSwwLDQuMDYsNC4wNiwwLDAsMS0uODEsOFoiLz48Y2lyY2xlIGNsYXNzPSJjbHMtMiIgY3g9IjIwLjEzIiBjeT0iMzEuMzgiIHI9IjAuNjMiLz48cGF0aCBjbGFzcz0iY2xzLTIiIGQ9Ik0zMC43NSwyOC44OEgyNS4xMlYyNC4zOUwyNi43NCwyNmwuODgtLjg5TDI0LjUsMjJsLTMuMTIsMy4xMi44OC44OSwxLjYyLTEuNjJ2NC40OUgxOC4yNUExLjI1LDEuMjUsMCwwLDAsMTcsMzAuMTJ2Mi41YTEuMjYsMS4yNiwwLDAsMCwxLjI1LDEuMjZoMTIuNUExLjI2LDEuMjYsMCwwLDAsMzIsMzIuNjJ2LTIuNUExLjI1LDEuMjUsMCwwLDAsMzAuNzUsMjguODhabTAsMy43NEgxOC4yNXYtMi41aDEyLjVaIi8+PHJlY3QgY2xhc3M9ImNscy0zIiB4PSIxNC41IiB5PSIxNC41IiB3aWR0aD0iMjAiIGhlaWdodD0iMjAiLz48L3N2Zz4=;fontSize=14;fontFamily=IBM Plex Sans;fontSource=fonts%2FIBMPlexSans-Regular.woff;labelPosition=center;verticalLabelPosition=bottom;align=center;verticalAlign=middle;spacingTop=-34;" parent="IAwdmGmUgT2g3J3roz0W-1" vertex="1">
          <mxGeometry x="148.75" y="253" width="62.5" height="62.5" as="geometry" />
        </mxCell>
        <mxCell id="P6smGd08yftEUrH7O6GD-498" value="" style="rounded=0;whiteSpace=wrap;html=1;strokeColor=none;fillColor=#878d96;" parent="IAwdmGmUgT2g3J3roz0W-1" vertex="1">
          <mxGeometry x="40" y="83" width="7" height="37" as="geometry" />
        </mxCell>
        <mxCell id="P6smGd08yftEUrH7O6GD-499" value="Zone 1" style="text;html=1;strokeColor=none;fillColor=none;align=left;verticalAlign=middle;whiteSpace=wrap;rounded=0;fontFamily=IBM Plex Sans;fontSource=fonts%2FIBMPlexSans-Regular.woff;fontSize=14;" parent="IAwdmGmUgT2g3J3roz0W-1" vertex="1">
          <mxGeometry x="91" y="91" width="168" height="20" as="geometry" />
        </mxCell>
        <mxCell id="P6smGd08yftEUrH7O6GD-500" value="" style="shape=image;aspect=fixed;image=data:image/svg+xml,PD94bWwgdmVyc2lvbj0iMS4wIiBlbmNvZGluZz0iVVRGLTgiPz4KPHN2ZyB3aWR0aD0iMjlweCIgaGVpZ2h0PSIyNnB4IiB2aWV3Qm94PSIwIDAgMjkgMjYiIHZlcnNpb249IjEuMSIgeG1sbnM9Imh0dHA6Ly93d3cudzMub3JnLzIwMDAvc3ZnIiB4bWxuczp4bGluaz0iaHR0cDovL3d3dy53My5vcmcvMTk5OS94bGluayI+CiAgICA8IS0tIEdlbmVyYXRvcjogU2tldGNoIDUzICg3MjUyMCkgLSBodHRwczovL3NrZXRjaGFwcC5jb20gLS0+CiAgICA8dGl0bGU+Wm9uZSBCbGFjazwvdGl0bGU+CiAgICA8ZGVzYz5DcmVhdGVkIHdpdGggU2tldGNoLjwvZGVzYz4KICAgIDxnIGlkPSJQYWdlLTEiIHN0cm9rZT0ibm9uZSIgc3Ryb2tlLXdpZHRoPSIxIiBmaWxsPSJub25lIiBmaWxsLXJ1bGU9ImV2ZW5vZGQiPgogICAgICAgIDxnIGlkPSJab25lLUJsYWNrIiB0cmFuc2Zvcm09InRyYW5zbGF0ZSgwLjEyNTAwMCwgMC4wMDAwMDApIiBmaWxsPSIjMDAwMDAwIj4KICAgICAgICAgICAgPGcgaWQ9Ikdyb3VwLTMiPgogICAgICAgICAgICAgICAgPHBhdGggZD0iTTI2LjAwMDEsMjQuMDAwMSBMMjEuMDAwMSwyNC4wMDAxIEwyMS4wMDAxLDIwLjAwMDEgTDIzLjAwMDEsMjAuMDAwMSBMMjMuMDAwMSwxOC4wMDAxIEwyMS4wMDAxLDE4LjAwMDEgTDIxLjAwMDEsMTYuMDAwMSBMMjMuMDAwMSwxNi4wMDAxIEwyMy4wMDAxLDE0LjAwMDEgTDIxLjAwMDEsMTQuMDAwMSBMMjEuMDAwMSwxMi4wMDAxIEwyMy4wMDAxLDEyLjAwMDEgTDIzLjAwMDEsMTAuMDAwMSBMMjEuMDAwMSwxMC4wMDAxIEwyMS4wMDAxLDguMDAwMSBMMjYuMDAwMSw4LjAwMDEgTDI2LjAwMDEsMjQuMDAwMSBaIE05LjAwMDEsMjQuMDAwMSBMMTkuMDAwMSwyNC4wMDAxIEwxOS4wMDAxLDIuMDAwMSBMOS4wMDAxLDIuMDAwMSBMOS4wMDAxLDI0LjAwMDEgWiBNMi4wMDAxLDI0LjAwMDEgTDIuMDAwMSw4LjAwMDEgTDcuMDAwMSw4LjAwMDEgTDcuMDAwMSwxMC4wMDAxIEw1LjAwMDEsMTAuMDAwMSBMNS4wMDAxLDEyLjAwMDEgTDcuMDAwMSwxMi4wMDAxIEw3LjAwMDEsMTQuMDAwMSBMNS4wMDAxLDE0LjAwMDEgTDUuMDAwMSwxNi4wMDAxIEw3LjAwMDEsMTYuMDAwMSBMNy4wMDAxLDE4LjAwMDEgTDUuMDAwMSwxOC4wMDAxIEw1LjAwMDEsMjAuMDAwMSBMNy4wMDAxLDIwLjAwMDEgTDcuMDAwMSwyNC4wMDAxIEwyLjAwMDEsMjQuMDAwMSBaIE0yNi4wMDAxLDYuMDAwMSBMMjEuMDAwMSw2LjAwMDEgTDIxLjAwMDEsMi4wMDAxIEMyMC45OTkxLDAuODk2MSAyMC4xMDQxLDAuMDAxMSAxOS4wMDAxLDAuMDAwMSBMOS4wMDAxLDAuMDAwMSBDNy44OTYxLDAuMDAxMSA3LjAwMTEsMC44OTYxIDcuMDAwMSwyLjAwMDEgTDcuMDAwMSw2LjAwMDEgTDIuMDAwMSw2LjAwMDEgQzAuODk2MSw2LjAwMTEgMC4wMDExLDYuODk2MSAwLjAwMDEsOC4wMDAxIEwwLjAwMDEsMjQuMDAwMSBDMC4wMDExLDI1LjEwNDEgMC44OTYxLDI1Ljk5OTEgMi4wMDAxLDI2LjAwMDEgTDI2LjAwMDEsMjYuMDAwMSBDMjcuMTA0MSwyNS45OTkxIDI3Ljk5OTEsMjUuMTA0MSAyOC4wMDAxLDI0LjAwMDEgTDI4LjAwMDEsOC4wMDAxIEMyNy45OTkxLDYuODk2MSAyNy4xMDQxLDYuMDAxMSAyNi4wMDAxLDYuMDAwMSBMMjYuMDAwMSw2LjAwMDEgWiIgaWQ9IkZpbGwtMSI+PC9wYXRoPgogICAgICAgICAgICA8L2c+CiAgICAgICAgICAgIDxwb2x5Z29uIGlkPSJGaWxsLTQiIHBvaW50cz0iMTIgNiAxNiA2IDE2IDQgMTIgNCI+PC9wb2x5Z29uPgogICAgICAgICAgICA8cG9seWdvbiBpZD0iRmlsbC02IiBwb2ludHM9IjEyIDEwIDE2IDEwIDE2IDggMTIgOCI+PC9wb2x5Z29uPgogICAgICAgICAgICA8cG9seWdvbiBpZD0iRmlsbC03IiBwb2ludHM9IjEyIDE0IDE2IDE0IDE2IDEyIDEyIDEyIj48L3BvbHlnb24+CiAgICAgICAgPC9nPgogICAgPC9nPgo8L3N2Zz4=;" parent="IAwdmGmUgT2g3J3roz0W-1" vertex="1">
          <mxGeometry x="60" y="91.07000000000005" width="20" height="17.93" as="geometry" />
        </mxCell>
        <mxCell id="P6smGd08yftEUrH7O6GD-512" value="" style="rounded=0;whiteSpace=wrap;html=1;fontFamily=IBM Plex Sans;fontSource=fonts%2FIBMPlexSans-Regular.woff;fontSize=14;spacingBottom=-28;spacingTop=0;labelPosition=-100;verticalLabelPosition=top;align=center;verticalAlign=bottom;spacingLeft=9;spacing=0;expand=0;recursiveResize=0;spacingRight=0;container=0;collapsible=0;strokeColor=#1192E8;fillColor=none;" parent="IAwdmGmUgT2g3J3roz0W-1" vertex="1">
          <mxGeometry x="19" y="43" width="321" height="367" as="geometry">
            <mxRectangle width="670" as="alternateBounds" />
          </mxGeometry>
        </mxCell>
        <mxCell id="P6smGd08yftEUrH7O6GD-520" value="" style="rounded=0;whiteSpace=wrap;html=1;fontFamily=IBM Plex Sans;fontSource=fonts%2FIBMPlexSans-Regular.woff;fontSize=14;spacingBottom=-28;spacingTop=0;labelPosition=-100;verticalLabelPosition=top;align=center;verticalAlign=bottom;spacingLeft=9;spacing=0;expand=0;recursiveResize=0;spacingRight=0;container=1;collapsible=0;strokeColor=#00882B;fillColor=#B9E0A5;" parent="IAwdmGmUgT2g3J3roz0W-1" vertex="1">
          <mxGeometry x="85" y="203" width="190" height="152" as="geometry">
            <mxRectangle width="670" as="alternateBounds" />
          </mxGeometry>
        </mxCell>
        <mxCell id="P6smGd08yftEUrH7O6GD-521" value="" style="rounded=0;whiteSpace=wrap;html=1;strokeColor=#00882B;fillColor=#00882B;" parent="P6smGd08yftEUrH7O6GD-520" vertex="1">
          <mxGeometry width="7" height="37" as="geometry" />
        </mxCell>
        <mxCell id="P6smGd08yftEUrH7O6GD-522" value="10.40.10.0/24 : VSI" style="text;html=1;strokeColor=none;fillColor=none;align=left;verticalAlign=middle;whiteSpace=wrap;rounded=0;fontFamily=IBM Plex Sans;fontSource=fonts%2FIBMPlexSans-Regular.woff;fontSize=14;" parent="P6smGd08yftEUrH7O6GD-520" vertex="1">
          <mxGeometry x="51" y="8" width="163" height="20" as="geometry" />
        </mxCell>
        <mxCell id="P6smGd08yftEUrH7O6GD-523" value="" style="shape=image;aspect=fixed;image=data:image/svg+xml,PD94bWwgdmVyc2lvbj0iMS4wIiBlbmNvZGluZz0iVVRGLTgiPz4KPHN2ZyB3aWR0aD0iMjFweCIgaGVpZ2h0PSIyOXB4IiB2aWV3Qm94PSIwIDAgMjEgMjkiIHZlcnNpb249IjEuMSIgeG1sbnM9Imh0dHA6Ly93d3cudzMub3JnLzIwMDAvc3ZnIiB4bWxuczp4bGluaz0iaHR0cDovL3d3dy53My5vcmcvMTk5OS94bGluayI+CiAgICA8IS0tIEdlbmVyYXRvcjogU2tldGNoIDUzICg3MjUyMCkgLSBodHRwczovL3NrZXRjaGFwcC5jb20gLS0+CiAgICA8dGl0bGU+U3VibmV0IEJsYWNrPC90aXRsZT4KICAgIDxkZXNjPkNyZWF0ZWQgd2l0aCBTa2V0Y2guPC9kZXNjPgogICAgPGcgaWQ9IlBhZ2UtMSIgc3Ryb2tlPSJub25lIiBzdHJva2Utd2lkdGg9IjEiIGZpbGw9Im5vbmUiIGZpbGwtcnVsZT0iZXZlbm9kZCI+CiAgICAgICAgPGcgaWQ9IlN1Ym5ldC1CbGFjayIgdHJhbnNmb3JtPSJ0cmFuc2xhdGUoLTUuMzg4ODg5LCAtMS43NjI5ODYpIj4KICAgICAgICAgICAgPHBhdGggZD0iTTI0LDE0IEwyMiwxNCBMMjIsOCBDMjIsNC42ODYyOTE1IDE5LjMxMzcwODUsMiAxNiwyIEMxMi42ODYyOTE1LDIgMTAsNC42ODYyOTE1IDEwLDggTDEwLDE0IEw4LDE0IEM2Ljg5NTQzMDUsMTQgNiwxNC44OTU0MzA1IDYsMTYgTDYsMjggQzYsMjkuMTA0NTY5NSA2Ljg5NTQzMDUsMzAgOCwzMCBMMjQsMzAgQzI1LjEwNDU2OTUsMzAgMjYsMjkuMTA0NTY5NSAyNiwyOCBMMjYsMTYgQzI2LDE0Ljg5NTQzMDUgMjUuMTA0NTY5NSwxNCAyNCwxNCBaIE0xMiw4IEMxMiw1Ljc5MDg2MSAxMy43OTA4NjEsNCAxNiw0IEMxOC4yMDkxMzksNCAyMCw1Ljc5MDg2MSAyMCw4IEwyMCwxNCBMMTIsMTQgTDEyLDggWiBNMjQsMjggTDgsMjggTDgsMTYgTDI0LDE2IEwyNCwyOCBaIiBpZD0iU2hhcGUiIGZpbGw9IiMwMDAwMDAiIGZpbGwtcnVsZT0ibm9uemVybyI+PC9wYXRoPgogICAgICAgICAgICA8cmVjdCBpZD0iX1RyYW5zcGFyZW50X1JlY3RhbmdsZV8iIHg9IjAiIHk9IjAiIHdpZHRoPSIzMiIgaGVpZ2h0PSIzMiI+PC9yZWN0PgogICAgICAgIDwvZz4KICAgIDwvZz4KPC9zdmc+;imageBackground=none;" parent="P6smGd08yftEUrH7O6GD-520" vertex="1">
          <mxGeometry x="20" y="6" width="14" height="19.34" as="geometry" />
        </mxCell>
        <mxCell id="P6smGd08yftEUrH7O6GD-593" value="Virtual Server" style="shape=image;aspect=fixed;image=data:image/svg+xml,PHN2ZyBpZD0iTGF5ZXJfMSIgZGF0YS1uYW1lPSJMYXllciAxIiB4bWxucz0iaHR0cDovL3d3dy53My5vcmcvMjAwMC9zdmciIHZpZXdCb3g9IjAgMCA0OSA0OSI+PGRlZnM+PHN0eWxlPi5jbHMtMXtmaWxsOiMxOTgwMzg7fS5jbHMtMntmaWxsOiNmZmY7fS5jbHMtM3tmaWxsOm5vbmU7fTwvc3R5bGU+PC9kZWZzPjxyZWN0IGNsYXNzPSJjbHMtMSIgeD0iMC41IiB5PSIwLjUiIHdpZHRoPSI0OCIgaGVpZ2h0PSI0OCIvPjxwYXRoIGNsYXNzPSJjbHMtMiIgZD0iTTI5LjE5LDI3LjYyaC0uMzFWMjYuMzhoLjMxYTIuODEsMi44MSwwLDAsMCwuMjItNS42MmwtLjUxLDAtLjA2LS41MWE0LjM3LDQuMzcsMCwwLDAtOC42OCwwbC0uMDYuNTEtLjUxLDBhMi44MSwyLjgxLDAsMCwwLC4yMiw1LjYyaC4zMXYxLjI0aC0uMzFhNC4wNiw0LjA2LDAsMCwxLS44MS04LDUuNjIsNS42MiwwLDAsMSwxMSwwLDQuMDYsNC4wNiwwLDAsMS0uODEsOFoiLz48Y2lyY2xlIGNsYXNzPSJjbHMtMiIgY3g9IjIwLjEzIiBjeT0iMzEuMzgiIHI9IjAuNjMiLz48cGF0aCBjbGFzcz0iY2xzLTIiIGQ9Ik0zMC43NSwyOC44OEgyNS4xMlYyNC4zOUwyNi43NCwyNmwuODgtLjg5TDI0LjUsMjJsLTMuMTIsMy4xMi44OC44OSwxLjYyLTEuNjJ2NC40OUgxOC4yNUExLjI1LDEuMjUsMCwwLDAsMTcsMzAuMTJ2Mi41YTEuMjYsMS4yNiwwLDAsMCwxLjI1LDEuMjZoMTIuNUExLjI2LDEuMjYsMCwwLDAsMzIsMzIuNjJ2LTIuNUExLjI1LDEuMjUsMCwwLDAsMzAuNzUsMjguODhabTAsMy43NEgxOC4yNXYtMi41aDEyLjVaIi8+PHJlY3QgY2xhc3M9ImNscy0zIiB4PSIxNC41IiB5PSIxNC41IiB3aWR0aD0iMjAiIGhlaWdodD0iMjAiLz48L3N2Zz4=;fontSize=14;fontFamily=IBM Plex Sans;fontSource=fonts%2FIBMPlexSans-Regular.woff;labelPosition=center;verticalLabelPosition=bottom;align=center;verticalAlign=middle;spacingTop=-47;" parent="P6smGd08yftEUrH7O6GD-520" vertex="1">
          <mxGeometry x="55" y="37" width="80" height="80" as="geometry" />
        </mxCell>
        <mxCell id="P6smGd08yftEUrH7O6GD-513" value="" style="rounded=0;whiteSpace=wrap;html=1;strokeColor=none;fillColor=#1192E8;" parent="IAwdmGmUgT2g3J3roz0W-1" vertex="1">
          <mxGeometry x="19" y="43" width="7" height="37" as="geometry" />
        </mxCell>
        <mxCell id="P6smGd08yftEUrH7O6GD-514" value="Workload&amp;nbsp;VPC" style="text;html=1;strokeColor=none;fillColor=none;align=left;verticalAlign=middle;whiteSpace=wrap;rounded=0;fontFamily=IBM Plex Sans;fontSource=fonts%2FIBMPlexSans-Regular.woff;fontSize=14;" parent="IAwdmGmUgT2g3J3roz0W-1" vertex="1">
          <mxGeometry x="70" y="51" width="163" height="20" as="geometry" />
        </mxCell>
        <mxCell id="P6smGd08yftEUrH7O6GD-515" value="" style="shape=image;aspect=fixed;image=data:image/svg+xml,PD94bWwgdmVyc2lvbj0iMS4wIiBlbmNvZGluZz0iVVRGLTgiPz4KPHN2ZyB3aWR0aD0iMjlweCIgaGVpZ2h0PSIyOHB4IiB2aWV3Qm94PSIwIDAgMjkgMjgiIHZlcnNpb249IjEuMSIgeG1sbnM9Imh0dHA6Ly93d3cudzMub3JnLzIwMDAvc3ZnIiB4bWxuczp4bGluaz0iaHR0cDovL3d3dy53My5vcmcvMTk5OS94bGluayI+CiAgICA8IS0tIEdlbmVyYXRvcjogU2tldGNoIDUzICg3MjUyMCkgLSBodHRwczovL3NrZXRjaGFwcC5jb20gLS0+CiAgICA8dGl0bGU+SUJNIFZQQyBCbGFjazwvdGl0bGU+CiAgICA8ZGVzYz5DcmVhdGVkIHdpdGggU2tldGNoLjwvZGVzYz4KICAgIDxnIGlkPSJQYWdlLTEiIHN0cm9rZT0ibm9uZSIgc3Ryb2tlLXdpZHRoPSIxIiBmaWxsPSJub25lIiBmaWxsLXJ1bGU9ImV2ZW5vZGQiPgogICAgICAgIDxnIGlkPSJJQk0tVlBDLUJsYWNrIiB0cmFuc2Zvcm09InRyYW5zbGF0ZSgwLjc1MDAwMCwgLTEuMDAwMDAwKSIgZmlsbD0iIzAwMDAwMCI+CiAgICAgICAgICAgIDxwYXRoIGQ9Ik0wLjAwMDksMS4wMDAyIEwwLjAwMDksOS4wMDAyIEw2LjU4NjksOS4wMDAyIEwyMC4wMDA5LDIyLjQxNDIgTDIwLjAwMDksMjkuMDAwMiBMMjguMDAwOSwyOS4wMDAyIEwyOC4wMDA5LDIxLjAwMDIgTDIxLjQxNTksMjEuMDAwMiBMOC4wMDA5LDcuNTg1MiBMOC4wMDA5LDEuMDAwMiBMMC4wMDA5LDEuMDAwMiBaIE0yLjAwMDksNy4wMDAyIEw2LjAwMDksNy4wMDAyIEw2LjAwMDksMy4wMDAyIEwyLjAwMDksMy4wMDAyIEwyLjAwMDksNy4wMDAyIFogTTIyLjAwMDksMjcuMDAxMiBMMjYuMDAxOSwyNy4wMDEyIEwyNi4wMDE5LDIzLjAwMDIgTDIyLjAwMDksMjMuMDAwMiBMMjIuMDAwOSwyNy4wMDEyIFoiIGlkPSJGaWxsLTEiPjwvcGF0aD4KICAgICAgICAgICAgPGcgaWQ9Ikdyb3VwLTgiIHRyYW5zZm9ybT0idHJhbnNsYXRlKDAuMDAwMDAwLCAwLjAwMTkwMCkiPgogICAgICAgICAgICAgICAgPGcgaWQ9Ikdyb3VwLTQiIHRyYW5zZm9ybT0idHJhbnNsYXRlKDExLjAwMDAwMCwgMC4wMDAwMDApIj4KICAgICAgICAgICAgICAgICAgICA8cGF0aCBkPSJNMTIuNjQ2Nyw2LjgxNzkgQzExLjU0MjcsNi44MTc5IDEwLjY0NjcsNS45MjI5IDEwLjY0NjcsNC44MTc5IEMxMC42NDY3LDMuNzEzOSAxMS41NDI3LDIuODE3OSAxMi42NDY3LDIuODE3OSBDMTMuNzUwNywyLjgxNzkgMTQuNjQ2NywzLjcxMzkgMTQuNjQ2Nyw0LjgxNzkgQzE0LjY0NTcsNS45MjE5IDEzLjc1MDcsNi44MTY5IDEyLjY0NjcsNi44MTc5IE0xNi43MzM3LDMuNTE4OSBDMTYuMzU2NywyLjQ5ODkgMTUuNTMxNywxLjY2NzkgMTQuNTE1NywxLjI4MDkgQzEyLjEyNzcsMC4zNzA5IDkuNzE3NywxLjc1NTkgOS4xNDI3LDMuOTk3OSBMMC4wMDA3LDMuOTk3OSBMMC4wMDA3LDUuOTk3OSBMOS4xNDI3LDUuOTk3OSBDOS41MDc3LDcuMzk3OSAxMC42MDE3LDguNDkwOSAxMi4wMDA3LDguODU1OSBMMTIuMDAwNywxNy45OTc5IEwxNC4wMDA3LDE3Ljk5NzkgTDE0LjAwMDcsOC44NTU5IEMxNi4yMjk3LDguMjgxOSAxNy42MTE3LDUuODk2OSAxNi43MzM3LDMuNTE4OSIgaWQ9IkZpbGwtMiI+PC9wYXRoPgogICAgICAgICAgICAgICAgPC9nPgogICAgICAgICAgICAgICAgPGcgaWQ9Ikdyb3VwLTciIHRyYW5zZm9ybT0idHJhbnNsYXRlKDAuMDAwMDAwLCAxMS4wMDAwMDApIj4KICAgICAgICAgICAgICAgICAgICA8cGF0aCBkPSJNMy42NDY3LDE1LjgxNzkgQzIuNTQyNywxNS44MTc5IDEuNjQ2NywxNC45MjI5IDEuNjQ2NywxMy44MTc5IEMxLjY0NjcsMTIuNzEzOSAyLjU0MjcsMTEuODE3OSAzLjY0NjcsMTEuODE3OSBDNC43NTA3LDExLjgxNzkgNS42NDY3LDEyLjcxMzkgNS42NDY3LDEzLjgxNzkgQzUuNjQ1NywxNC45MjE5IDQuNzUwNywxNS44MTY5IDMuNjQ2NywxNS44MTc5IEwzLjY0NjcsMTUuODE3OSBaIE0xNy4wMDA3LDEyLjk5NzkgTDcuODU4NywxMi45OTc5IEM3LjQ5MzcsMTEuNTk3OSA2LjQwMDcsMTAuNTA0OSA1LjAwMDcsMTAuMTM5OSBMNS4wMDA3LDAuOTk3OSBMMy4wMDA3LDAuOTk3OSBMMy4wMDA3LDEwLjEzOTkgQzAuNDg3NywxMC43ODQ5IC0wLjg1MTMsMTMuNjgzOSAwLjU5NDcsMTYuMTE5OSBDMS4xNTA3LDE3LjA1NTkgMi4xMTE3LDE3LjcyODkgMy4xODI3LDE3LjkyNjkgQzUuNDAyNywxOC4zMzc5IDcuMzUzNywxNi45Njk5IDcuODU4NywxNC45OTc5IEwxNy4wMDA3LDE0Ljk5NzkgTDE3LjAwMDcsMTIuOTk3OSBaIiBpZD0iRmlsbC01Ij48L3BhdGg+CiAgICAgICAgICAgICAgICA8L2c+CiAgICAgICAgICAgIDwvZz4KICAgICAgICA8L2c+CiAgICA8L2c+Cjwvc3ZnPg==;" parent="IAwdmGmUgT2g3J3roz0W-1" vertex="1">
          <mxGeometry x="39" y="49.84999999999991" width="20" height="19.31" as="geometry" />
        </mxCell>
        <mxCell id="P6smGd08yftEUrH7O6GD-516" value="" style="rounded=0;whiteSpace=wrap;html=1;fontFamily=IBM Plex Sans;fontSource=fonts%2FIBMPlexSans-Regular.woff;fontSize=14;fillColor=none;spacingBottom=-28;spacingTop=0;labelPosition=-100;verticalLabelPosition=top;align=center;verticalAlign=bottom;spacingLeft=9;spacing=0;expand=0;recursiveResize=0;spacingRight=0;container=1;collapsible=0;strokeColor=#FA4D56;strokeWidth=1;" parent="IAwdmGmUgT2g3J3roz0W-1" vertex="1">
          <mxGeometry width="360" height="430" as="geometry">
            <mxRectangle width="670" as="alternateBounds" />
          </mxGeometry>
        </mxCell>
        <mxCell id="P6smGd08yftEUrH7O6GD-517" value="" style="rounded=0;whiteSpace=wrap;html=1;strokeColor=none;fillColor=#FA4D56;" parent="P6smGd08yftEUrH7O6GD-516" vertex="1">
          <mxGeometry width="7" height="37" as="geometry" />
        </mxCell>
        <mxCell id="P6smGd08yftEUrH7O6GD-518" value="Workload&amp;nbsp;Resource Group" style="text;html=1;strokeColor=none;fillColor=none;align=left;verticalAlign=middle;whiteSpace=wrap;rounded=0;fontFamily=IBM Plex Sans;fontSource=fonts%2FIBMPlexSans-Regular.woff;fontSize=14;" parent="P6smGd08yftEUrH7O6GD-516" vertex="1">
          <mxGeometry x="50.33" y="8" width="279.67" height="20" as="geometry" />
        </mxCell>
        <mxCell id="P6smGd08yftEUrH7O6GD-519" value="" style="shape=image;aspect=fixed;image=data:image/svg+xml,PD94bWwgdmVyc2lvbj0iMS4wIiBlbmNvZGluZz0iVVRGLTgiPz4KPHN2ZyB3aWR0aD0iMjlweCIgaGVpZ2h0PSIyOHB4IiB2aWV3Qm94PSIwIDAgMjkgMjgiIHZlcnNpb249IjEuMSIgeG1sbnM9Imh0dHA6Ly93d3cudzMub3JnLzIwMDAvc3ZnIiB4bWxuczp4bGluaz0iaHR0cDovL3d3dy53My5vcmcvMTk5OS94bGluayI+CiAgICA8IS0tIEdlbmVyYXRvcjogU2tldGNoIDUzICg3MjUyMCkgLSBodHRwczovL3NrZXRjaGFwcC5jb20gLS0+CiAgICA8dGl0bGU+UmVzb3VyY2UgR3JvdXAgQmxhY2s8L3RpdGxlPgogICAgPGRlc2M+Q3JlYXRlZCB3aXRoIFNrZXRjaC48L2Rlc2M+CiAgICA8ZGVmcz4KICAgICAgICA8cG9seWdvbiBpZD0icGF0aC0xIiBwb2ludHM9IjAgMCAyOCAwIDI4IDI4IDAgMjgiPjwvcG9seWdvbj4KICAgIDwvZGVmcz4KICAgIDxnIGlkPSJQYWdlLTEiIHN0cm9rZT0ibm9uZSIgc3Ryb2tlLXdpZHRoPSIxIiBmaWxsPSJub25lIiBmaWxsLXJ1bGU9ImV2ZW5vZGQiPgogICAgICAgIDxnIGlkPSJSZXNvdXJjZS1Hcm91cC1CbGFjayIgdHJhbnNmb3JtPSJ0cmFuc2xhdGUoMC4zNzUwMDAsIDAuMDAwMDAwKSI+CiAgICAgICAgICAgIDxtYXNrIGlkPSJtYXNrLTIiIGZpbGw9IndoaXRlIj4KICAgICAgICAgICAgICAgIDx1c2UgeGxpbms6aHJlZj0iI3BhdGgtMSI+PC91c2U+CiAgICAgICAgICAgIDwvbWFzaz4KICAgICAgICAgICAgPGcgaWQ9IkNsaXAtMiI+PC9nPgogICAgICAgICAgICA8cGF0aCBkPSJNOCwyMCBMMjAsMjAgTDIwLDggTDgsOCBMOCwyMCBaIE0yMCwyMiBMOCwyMiBDNi44OTYsMjEuOTk5IDYuMDAxLDIxLjEwNCA2LDIwIEw2LDggQzYuMDAxLDYuODk2IDYuODk2LDYuMDAxIDgsNiBMMjAsNiBDMjEuMTA0LDYuMDAxIDIxLjk5OSw2Ljg5NiAyMiw4IEwyMiwyMCBDMjEuOTk5LDIxLjEwNCAyMS4xMDQsMjEuOTk5IDIwLDIyIEwyMCwyMiBaIiBpZD0iRmlsbC0xIiBmaWxsPSIjMDAwMDAwIiBtYXNrPSJ1cmwoI21hc2stMikiPjwvcGF0aD4KICAgICAgICAgICAgPHBhdGggZD0iTTUuOTk5OCwyOCBMMS45OTk4LDI4IEMwLjg5NTgsMjcuOTk5IDAuMDAwOCwyNy4xMDQgLTAuMDAwMiwyNiBMLTAuMDAwMiwyIEMwLjAwMDgsMC44OTYgMC44OTU4LDAuMDAxIDEuOTk5OCwwIEw1Ljk5OTgsMCBMNS45OTk4LDIgTDEuOTk5OCwyIEwxLjk5OTgsMjYgTDUuOTk5OCwyNiBMNS45OTk4LDI4IFoiIGlkPSJGaWxsLTMiIGZpbGw9IiMwMDAwMDAiIG1hc2s9InVybCgjbWFzay0yKSI+PC9wYXRoPgogICAgICAgICAgICA8cGF0aCBkPSJNMjYuMDAwMywyOCBMMjIuMDAwMywyOCBMMjIuMDAwMywyNiBMMjYuMDAwMywyNiBMMjYuMDAwMywyIEwyMi4wMDAzLDIgTDIyLjAwMDMsMCBMMjYuMDAwMywwIEMyNy4xMDQzLDAuMDAxIDI3Ljk5OTMsMC44OTYgMjguMDAwMywyIEwyOC4wMDAzLDI2IEMyNy45OTkzLDI3LjEwNCAyNy4xMDQzLDI3Ljk5OSAyNi4wMDAzLDI4IiBpZD0iRmlsbC00IiBmaWxsPSIjMDAwMDAwIiBtYXNrPSJ1cmwoI21hc2stMikiPjwvcGF0aD4KICAgICAgICA8L2c+CiAgICA8L2c+Cjwvc3ZnPg==;" parent="P6smGd08yftEUrH7O6GD-516" vertex="1">
          <mxGeometry x="20" y="8.840000000000055" width="20" height="19.31" as="geometry" />
        </mxCell>
        <mxCell id="P6smGd08yftEUrH7O6GD-323" value="" style="rounded=0;whiteSpace=wrap;html=1;fontFamily=IBM Plex Sans;fontSource=fonts%2FIBMPlexSans-Regular.woff;fontSize=14;fillColor=none;spacingBottom=-28;spacingTop=0;labelPosition=-100;verticalLabelPosition=top;align=center;verticalAlign=bottom;spacingLeft=9;spacing=0;expand=0;recursiveResize=0;spacingRight=0;container=1;collapsible=0;strokeColor=#FA4D56;strokeWidth=1;" parent="1" vertex="1">
          <mxGeometry x="449" y="-108" width="261" height="258" as="geometry">
            <mxRectangle width="670" as="alternateBounds" />
          </mxGeometry>
        </mxCell>
        <mxCell id="P6smGd08yftEUrH7O6GD-324" value="" style="rounded=0;whiteSpace=wrap;html=1;strokeColor=none;fillColor=#FA4D56;fontFamily=IBM Plex Sans;fontSource=fonts%2FIBMPlexSans-Regular.woff;fontSize=14;" parent="P6smGd08yftEUrH7O6GD-323" vertex="1">
          <mxGeometry width="7" height="37" as="geometry" />
        </mxCell>
        <mxCell id="P6smGd08yftEUrH7O6GD-325" value="Management ACL" style="text;html=1;strokeColor=none;fillColor=none;align=left;verticalAlign=middle;whiteSpace=wrap;rounded=0;fontFamily=IBM Plex Sans;fontSource=fonts%2FIBMPlexSans-Regular.woff;fontSize=14;" parent="P6smGd08yftEUrH7O6GD-323" vertex="1">
          <mxGeometry x="50.33" y="8" width="170" height="20" as="geometry" />
        </mxCell>
        <mxCell id="P6smGd08yftEUrH7O6GD-326" value="" style="shape=image;aspect=fixed;image=data:image/svg+xml,PHN2ZyBpZD0iaWNvbiIgeG1sbnM9Imh0dHA6Ly93d3cudzMub3JnLzIwMDAvc3ZnIiB2aWV3Qm94PSIwIDAgMzIgMzIiPjxkZWZzPjxzdHlsZT4uY2xzLTF7ZmlsbDpub25lO308L3N0eWxlPjwvZGVmcz48dGl0bGU+bG9ja2VkPC90aXRsZT48cGF0aCBkPSJNMjQsMTRIMjJWOEE2LDYsMCwwLDAsMTAsOHY2SDhhMiwyLDAsMCwwLTIsMlYyOGEyLDIsMCwwLDAsMiwySDI0YTIsMiwwLDAsMCwyLTJWMTZBMiwyLDAsMCwwLDI0LDE0Wk0xMiw4YTQsNCwwLDAsMSw4LDB2NkgxMlpNMjQsMjhIOFYxNkgyNFoiLz48cmVjdCBpZD0iX1RyYW5zcGFyZW50X1JlY3RhbmdsZV8iIGRhdGEtbmFtZT0iJmx0O1RyYW5zcGFyZW50IFJlY3RhbmdsZSZndDsiIGNsYXNzPSJjbHMtMSIgd2lkdGg9IjMyIiBoZWlnaHQ9IjMyIi8+PC9zdmc+;" parent="P6smGd08yftEUrH7O6GD-323" vertex="1">
          <mxGeometry x="20" y="6.5" width="23" height="23" as="geometry" />
        </mxCell>
        <mxCell id="P6smGd08yftEUrH7O6GD-73" value="" style="rounded=0;whiteSpace=wrap;html=1;fontFamily=IBM Plex Sans;fontSource=fonts%2FIBMPlexSans-Regular.woff;fontSize=14;fillColor=none;spacingBottom=-28;spacingTop=0;labelPosition=-100;verticalLabelPosition=top;align=center;verticalAlign=bottom;spacingLeft=9;spacing=0;expand=0;recursiveResize=0;spacingRight=0;container=1;collapsible=0;strokeColor=#1192E8;strokeWidth=1;" parent="P6smGd08yftEUrH7O6GD-323" vertex="1">
          <mxGeometry x="10" y="37" width="240" height="213" as="geometry">
            <mxRectangle width="670" as="alternateBounds" />
          </mxGeometry>
        </mxCell>
        <mxCell id="P6smGd08yftEUrH7O6GD-74" value="" style="rounded=0;whiteSpace=wrap;html=1;strokeColor=#1192E8;fillColor=#1192E8;" parent="P6smGd08yftEUrH7O6GD-73" vertex="1">
          <mxGeometry width="7" height="37" as="geometry" />
        </mxCell>
        <mxCell id="P6smGd08yftEUrH7O6GD-75" value="Security Group" style="text;html=1;strokeColor=none;fillColor=none;align=left;verticalAlign=middle;whiteSpace=wrap;rounded=0;fontFamily=IBM Plex Sans;fontSource=fonts%2FIBMPlexSans-Regular.woff;fontSize=14;" parent="P6smGd08yftEUrH7O6GD-73" vertex="1">
          <mxGeometry x="50.33" y="8" width="170" height="20" as="geometry" />
        </mxCell>
        <mxCell id="P6smGd08yftEUrH7O6GD-76" value="" style="shape=image;aspect=fixed;image=data:image/svg+xml,PD94bWwgdmVyc2lvbj0iMS4wIiBlbmNvZGluZz0iVVRGLTgiPz4KPHN2ZyB3aWR0aD0iMjhweCIgaGVpZ2h0PSIyOHB4IiB2aWV3Qm94PSIwIDAgMjggMjgiIHZlcnNpb249IjEuMSIgeG1sbnM9Imh0dHA6Ly93d3cudzMub3JnLzIwMDAvc3ZnIiB4bWxuczp4bGluaz0iaHR0cDovL3d3dy53My5vcmcvMTk5OS94bGluayI+CiAgICA8IS0tIEdlbmVyYXRvcjogU2tldGNoIDUzICg3MjUyMCkgLSBodHRwczovL3NrZXRjaGFwcC5jb20gLS0+CiAgICA8dGl0bGU+U2VjdXJpdHkgR3JvdXAgQmxhY2s8L3RpdGxlPgogICAgPGRlc2M+Q3JlYXRlZCB3aXRoIFNrZXRjaC48L2Rlc2M+CiAgICA8ZGVmcz4KICAgICAgICA8cG9seWdvbiBpZD0icGF0aC0xIiBwb2ludHM9IjAgMC4wMDA0IDI0IDAuMDAwNCAyNCAyOCAwIDI4Ij48L3BvbHlnb24+CiAgICA8L2RlZnM+CiAgICA8ZyBpZD0iUGFnZS0xIiBzdHJva2U9Im5vbmUiIHN0cm9rZS13aWR0aD0iMSIgZmlsbD0ibm9uZSIgZmlsbC1ydWxlPSJldmVub2RkIj4KICAgICAgICA8ZyBpZD0iU2VjdXJpdHktR3JvdXAtQmxhY2siPgogICAgICAgICAgICA8cGF0aCBkPSJNOSwxOSBMNywxOSBMNywxNyBDNy4wMDIsMTUuMzQ0IDguMzQ0LDE0LjAwMiAxMCwxNCBMMTYsMTQgTDE2LDE2IEwxMCwxNiBDOS40NDgsMTYgOS4wMDEsMTYuNDQ4IDksMTcgTDksMTkgWiIgaWQ9IkZpbGwtMSIgZmlsbD0iIzAwMDAwMCI+PC9wYXRoPgogICAgICAgICAgICA8cGF0aCBkPSJNMTMsNyBDMTEuODk2LDcgMTEsNy44OTYgMTEsOSBDMTEsMTAuMTA0IDExLjg5NiwxMSAxMywxMSBDMTQuMTA0LDExIDE1LDEwLjEwNCAxNSw5IEMxNC45OTksNy44OTYgMTQuMTA0LDcuMDAxIDEzLDcgTTEzLDEzIEMxMC43OTEsMTMgOSwxMS4yMDkgOSw5IEM5LDYuNzkxIDEwLjc5MSw1IDEzLDUgQzE1LjIwOSw1IDE3LDYuNzkxIDE3LDkgQzE2Ljk5NywxMS4yMDggMTUuMjA4LDEyLjk5OCAxMywxMyIgaWQ9IkZpbGwtMyIgZmlsbD0iIzAwMDAwMCI+PC9wYXRoPgogICAgICAgICAgICA8cGF0aCBkPSJNMjIsMTQgQzIwLjg5NiwxNCAyMCwxNC44OTYgMjAsMTYgQzIwLDE3LjEwNCAyMC44OTYsMTggMjIsMTggQzIzLjEwNCwxOCAyNCwxNy4xMDQgMjQsMTYgQzIzLjk5OSwxNC44OTYgMjMuMTA0LDE0LjAwMSAyMiwxNCBNMjIsMjAgQzE5Ljc5MSwyMCAxOCwxOC4yMDkgMTgsMTYgQzE4LDEzLjc5MSAxOS43OTEsMTIgMjIsMTIgQzI0LjIwOSwxMiAyNiwxMy43OTEgMjYsMTYgQzI1Ljk5NywxOC4yMDggMjQuMjA4LDE5Ljk5OCAyMiwyMCIgaWQ9IkZpbGwtNSIgZmlsbD0iIzAwMDAwMCI+PC9wYXRoPgogICAgICAgICAgICA8cGF0aCBkPSJNMjgsMjYgTDI2LDI2IEwyNiwyNCBDMjUuOTk5LDIzLjQ0OCAyNS41NTIsMjMgMjUsMjMgTDE5LDIzIEMxOC40NDgsMjMgMTguMDAxLDIzLjQ0OCAxOCwyNCBMMTgsMjYgTDE2LDI2IEwxNiwyNCBDMTYuMDAyLDIyLjM0NCAxNy4zNDQsMjEuMDAyIDE5LDIxIEwyNSwyMSBDMjYuNjU2LDIxLjAwMiAyNy45OTgsMjIuMzQ0IDI4LDI0IEwyOCwyNiBaIiBpZD0iRmlsbC03IiBmaWxsPSIjMDAwMDAwIj48L3BhdGg+CiAgICAgICAgICAgIDxnIGlkPSJHcm91cC0xMSI+CiAgICAgICAgICAgICAgICA8bWFzayBpZD0ibWFzay0yIiBmaWxsPSJ3aGl0ZSI+CiAgICAgICAgICAgICAgICAgICAgPHVzZSB4bGluazpocmVmPSIjcGF0aC0xIj48L3VzZT4KICAgICAgICAgICAgICAgIDwvbWFzaz4KICAgICAgICAgICAgICAgIDxnIGlkPSJDbGlwLTEwIj48L2c+CiAgICAgICAgICAgICAgICA8cGF0aCBkPSJNMTIsMjUuNzMzNCBMNi43NjYsMjIuOTQyNCBDMy44MywyMS4zODA0IDEuOTk2LDE4LjMyNTQgMiwxNS4wMDA0IEwyLDIuMDAwNCBMMjIsMi4wMDA0IEwyMiw4LjAwMDQgTDI0LDguMDAwNCBMMjQsMi4wMDA0IEMyMy45OTksMC44OTY0IDIzLjEwNCwwLjAwMTQgMjIsMC4wMDA0IEwyLDAuMDAwNCBDMC44OTYsMC4wMDE0IDAuMDAxLDAuODk2NCAwLDIuMDAwNCBMMCwxNS4wMDA0IEMtMC4wMDUsMTkuMDY0NCAyLjIzNiwyMi43OTg0IDUuODI0LDI0LjcwNzQgTDEyLDI4LjAwMDQgTDEyLDI1LjczMzQgWiIgaWQ9IkZpbGwtOSIgZmlsbD0iIzAwMDAwMCIgbWFzaz0idXJsKCNtYXNrLTIpIj48L3BhdGg+CiAgICAgICAgICAgIDwvZz4KICAgICAgICA8L2c+CiAgICA8L2c+Cjwvc3ZnPg==;" parent="P6smGd08yftEUrH7O6GD-73" vertex="1">
          <mxGeometry x="18" y="7" width="20" height="20" as="geometry" />
        </mxCell>
        <mxCell id="P6smGd08yftEUrH7O6GD-501" style="edgeStyle=orthogonalEdgeStyle;rounded=0;orthogonalLoop=1;jettySize=auto;html=1;exitX=0;exitY=0.5;exitDx=0;exitDy=0;entryX=1.009;entryY=0.22;entryDx=0;entryDy=0;entryPerimeter=0;fontFamily=IBM Plex Sans;fontSource=fonts%2FIBMPlexSans-Regular.woff;fontSize=14;startArrow=oval;startFill=1;strokeColor=#198038;" parent="1" edge="1">
          <mxGeometry relative="1" as="geometry" />
        </mxCell>
        <mxCell id="P6smGd08yftEUrH7O6GD-617" value="" style="endArrow=open;endFill=0;endSize=12;html=1;rounded=0;exitX=1;exitY=0.5;exitDx=0;exitDy=0;edgeStyle=orthogonalEdgeStyle;" parent="1" source="P6smGd08yftEUrH7O6GD-569" edge="1">
          <mxGeometry width="160" relative="1" as="geometry">
            <mxPoint x="440" y="800" as="sourcePoint" />
            <mxPoint x="970" y="180" as="targetPoint" />
            <Array as="points">
              <mxPoint x="340" y="70" />
              <mxPoint x="340" y="210" />
              <mxPoint x="970" y="210" />
            </Array>
          </mxGeometry>
        </mxCell>
        <mxCell id="P6smGd08yftEUrH7O6GD-619" value="" style="endArrow=open;endFill=0;endSize=12;html=1;rounded=0;exitX=1;exitY=0.5;exitDx=0;exitDy=0;edgeStyle=orthogonalEdgeStyle;" parent="1" source="P6smGd08yftEUrH7O6GD-569" edge="1">
          <mxGeometry width="160" relative="1" as="geometry">
            <mxPoint x="285" y="500" as="sourcePoint" />
            <mxPoint x="419" y="70" as="targetPoint" />
            <Array as="points">
              <mxPoint x="320" y="70" />
              <mxPoint x="320" y="70" />
            </Array>
          </mxGeometry>
        </mxCell>
      </root>
    </mxGraphModel>
  </diagram>
</mxfile>
